<?xml version="1.0" encoding="utf-8"?>
<!-- Generator: Adobe Illustrator 16.0.2, SVG Export Plug-In . SVG Version: 6.00 Build 0)  -->
<!DOCTYPE svg PUBLIC "-//W3C//DTD SVG 1.1//EN" "http://www.w3.org/Graphics/SVG/1.1/DTD/svg11.dtd">
<svg version="1.1" id="Слой_1" xmlns="http://www.w3.org/2000/svg" xmlns:xlink="http://www.w3.org/1999/xlink" x="0px" y="0px"
	 width="126px" height="126px" viewBox="0 0 126 126" enable-background="new 0 0 126 126" xml:space="preserve">
<g>
	<g>
		<g>
			<path fill="#FFFFFF" d="M120.298,0.608H5.702c-2.809,0-5.093,2.285-5.093,5.093v114.596c0,2.809,2.285,5.094,5.093,5.094h114.596
				c2.809,0,5.094-2.285,5.094-5.094V5.702C125.392,2.893,123.106,0.608,120.298,0.608z M120.298,120.298H5.702v-96.77h114.596
				V120.298z M120.298,18.435H5.702V5.702h114.596V18.435z"/>
			<rect x="10.795" y="9.521" fill="#FFFFFF" width="8.913" height="5.094"/>
			<rect x="23.528" y="9.521" fill="#FFFFFF" width="8.913" height="5.094"/>
			<rect x="106.292" y="9.521" fill="#FFFFFF" width="8.913" height="5.094"/>
			<path fill="#FFFFFF" d="M31.167,77.007h4.378c0.255,0.695,0.532,1.37,0.828,2.021l-3.085,3.104
				c-0.961,0.962-1.491,2.239-1.491,3.597c0,1.358,0.53,2.635,1.491,3.597l7.206,7.206c0.961,0.961,2.238,1.49,3.597,1.49
				c1.357,0,2.635-0.529,3.591-1.484l3.109-3.092c0.651,0.297,1.326,0.573,2.022,0.828v4.379c0,2.808,2.285,5.093,5.093,5.093
				h10.187c2.808,0,5.093-2.285,5.093-5.093v-4.379c0.696-0.255,1.371-0.531,2.022-0.828l3.103,3.086
				c0.962,0.961,2.239,1.49,3.598,1.49c1.357,0,2.635-0.529,3.596-1.49l7.207-7.207c0.961-0.961,1.49-2.238,1.49-3.596
				c0-1.358-0.529-2.636-1.485-3.592l-3.091-3.108c0.296-0.651,0.572-1.326,0.828-2.022h4.378c2.809,0,5.094-2.284,5.094-5.093
				V61.726c0-2.808-2.285-5.093-5.094-5.093h-4.378c-0.256-0.696-0.532-1.371-0.828-2.022l3.085-3.104
				c0.962-0.961,1.49-2.239,1.49-3.596c0-1.358-0.528-2.636-1.49-3.596l-7.207-7.207c-0.961-0.961-2.238-1.49-3.596-1.49
				c-1.358,0-2.635,0.529-3.592,1.485l-3.108,3.091c-0.65-0.297-1.326-0.573-2.022-0.828v-4.379c0-2.808-2.284-5.093-5.093-5.093
				H57.907c-2.809,0-5.093,2.285-5.093,5.093v4.379c-0.696,0.255-1.371,0.531-2.022,0.828l-3.104-3.085
				c-0.961-0.962-2.238-1.491-3.596-1.491s-2.635,0.529-3.596,1.491l-7.206,7.207c-0.961,0.961-1.491,2.239-1.491,3.596
				c0,1.358,0.53,2.635,1.485,3.591l3.091,3.108c-0.296,0.651-0.573,1.327-0.828,2.022h-4.378c-2.809,0-5.093,2.286-5.093,5.094
				v10.186C26.074,74.722,28.359,77.007,31.167,77.007z M31.167,61.726h6.214c1.125,0,2.117-0.737,2.44-1.814
				c0.502-1.674,1.135-3.214,1.882-4.576c0.543-0.99,0.369-2.219-0.428-3.02l-4.385-4.399l7.201-7.202l4.406,4.38
				c0.8,0.796,2.029,0.969,3.019,0.427c1.361-0.747,2.901-1.38,4.576-1.882c1.078-0.323,1.815-1.314,1.815-2.439v-6.214h10.187
				v6.214c0,1.124,0.737,2.116,1.814,2.439c1.675,0.503,3.214,1.136,4.575,1.882c0.99,0.542,2.219,0.369,3.02-0.427l4.4-4.386
				l7.201,7.202l-4.38,4.405c-0.796,0.8-0.97,2.03-0.427,3.02c0.746,1.361,1.38,2.9,1.882,4.576
				c0.323,1.077,1.314,1.814,2.438,1.814h6.214v10.186h-6.214c-1.124,0-2.115,0.738-2.438,1.815
				c-0.502,1.674-1.136,3.214-1.882,4.575c-0.543,0.989-0.369,2.219,0.427,3.02l4.386,4.399l-7.201,7.201l-4.406-4.379
				c-0.801-0.797-2.029-0.97-3.02-0.427c-1.361,0.746-2.9,1.379-4.575,1.881c-1.077,0.323-1.814,1.314-1.814,2.439v6.214H57.907
				v-6.214c0-1.125-0.738-2.116-1.815-2.439c-1.674-0.502-3.214-1.136-4.576-1.882c-0.384-0.211-0.805-0.313-1.224-0.313
				c-0.657,0-1.306,0.253-1.796,0.739l-4.4,4.386l-7.201-7.201l4.38-4.406c0.795-0.8,0.97-2.029,0.427-3.02
				c-0.746-1.361-1.379-2.9-1.882-4.575c-0.323-1.077-1.314-1.814-2.439-1.814h-6.214V61.726z"/>
			<path fill="#FFFFFF" d="M63,79.553c7.021,0,12.733-5.712,12.733-12.732c0-7.021-5.713-12.733-12.733-12.733
				c-7.021,0-12.733,5.711-12.733,12.733C50.267,73.841,55.979,79.553,63,79.553z M63,59.18c4.213,0,7.64,3.427,7.64,7.641
				c0,4.212-3.427,7.64-7.64,7.64c-4.212,0-7.64-3.428-7.64-7.64C55.36,62.607,58.788,59.18,63,59.18z"/>
			<rect x="97.379" y="38.807" fill="#FFFFFF" width="5.094" height="5.093"/>
			<rect x="105.019" y="38.807" fill="#FFFFFF" width="5.093" height="5.093"/>
			<rect x="112.658" y="38.807" fill="#FFFFFF" width="5.094" height="5.093"/>
			<rect x="8.248" y="89.739" fill="#FFFFFF" width="5.093" height="5.093"/>
			<rect x="15.888" y="89.739" fill="#FFFFFF" width="5.093" height="5.093"/>
			<rect x="23.528" y="89.739" fill="#FFFFFF" width="5.093" height="5.093"/>
			<rect x="17.161" y="110.111" fill="#FFFFFF" width="91.678" height="5.094"/>
		</g>
	</g>
</g>
</svg>
