<?xml version="1.0" encoding="utf-8"?>
<!-- Generator: Adobe Illustrator 16.0.2, SVG Export Plug-In . SVG Version: 6.00 Build 0)  -->
<!DOCTYPE svg PUBLIC "-//W3C//DTD SVG 1.1//EN" "http://www.w3.org/Graphics/SVG/1.1/DTD/svg11.dtd">
<svg version="1.1" id="Слой_1" xmlns="http://www.w3.org/2000/svg" xmlns:xlink="http://www.w3.org/1999/xlink" x="0px" y="0px"
	 width="126px" height="126px" viewBox="0 0 126 126" enable-background="new 0 0 126 126" xml:space="preserve">
<g>
	<g>
		<path fill="#FFFFFF" d="M125.525,27.569c0-0.207,0-0.416-0.21-0.626v-0.206c-0.206-0.209-0.206-0.419-0.416-0.625L99.889,1.101
			c-0.206-0.21-0.416-0.21-0.625-0.416h-0.206c-0.21,0-0.42-0.209-0.626-0.209l0,0H2.559c-1.251,0-2.084,0.835-2.084,2.083v18.759
			h4.168V4.644h91.705v22.925c0,1.251,0.833,2.086,2.084,2.086h22.925V67.17h4.169V27.569L125.525,27.569z M100.515,25.486V7.562
			l17.924,17.924H100.515z"/>
		<path fill="#FFFFFF" d="M123.44,88.012h-5.834c-0.21-0.21-0.21-0.626-0.419-0.836l4.169-3.749c0.418-0.42,0.625-0.836,0.625-1.461
			c0-0.626-0.207-1.042-0.625-1.457l-8.754-8.755c-0.832-0.835-2.083-0.835-2.918,0l-3.96,3.96c-0.415-0.21-0.625-0.21-0.833-0.416
			v-6.046c0-1.251-0.834-2.082-2.085-2.082H90.304c-1.252,0-2.085,0.831-2.085,2.082v5.627c-0.208,0.209-0.626,0.209-0.833,0.419
			l-3.96-3.959c-0.835-0.836-2.086-0.836-2.918,0l-8.754,8.754c-0.418,0.416-0.625,0.831-0.625,1.457
			c0,0.625,0.207,1.041,0.625,1.457l3.959,3.963c-0.209,0.416-0.209,0.622-0.415,0.832h-6.046c-1.251,0-2.083,0.835-2.083,2.086
			v12.504c0,1.251,0.832,2.083,2.083,2.083h5.836c0.21,0.209,0.21,0.625,0.416,0.835l-3.96,3.959
			c-0.415,0.416-0.625,0.836-0.625,1.461c0,0.626,0.21,1.042,0.625,1.457l8.754,8.754c0.836,0.832,2.085,0.832,2.918,0l3.96-3.959
			c0.417,0.206,0.625,0.206,0.835,0.416v6.046c0,1.247,0.832,2.082,2.083,2.082h12.505c1.252,0,2.085-0.835,2.085-2.082v-5.836
			c0.208-0.21,0.626-0.21,0.833-0.42l3.962,3.963c0.831,0.832,2.082,0.832,2.918,0l8.752-8.754c0.418-0.419,0.626-0.835,0.626-1.461
			c0-0.625-0.208-1.041-0.626-1.457l-3.961-3.959c0.209-0.21,0.209-0.626,0.419-0.836h5.834c1.252,0,2.085-0.835,2.085-2.082V90.094
			C125.525,88.843,124.692,88.012,123.44,88.012z M121.356,100.515h-5.211c-1.041,0-1.876,0.836-2.082,1.667
			c0,0.42-0.836,2.087-1.044,2.502c-0.207,0.416-0.417,0.836-0.417,1.252c0,0.625,0.21,1.041,0.625,1.457l3.544,3.543l-5.836,5.836
			l-3.544-3.543c-0.416-0.416-0.831-0.626-1.457-0.626c-0.625,0-0.835,0.21-1.251,0.42c-0.416,0.206-2.085,0.831-2.502,1.041
			c-1.042,0.206-1.667,1.041-1.667,2.083v5.21h-8.337v-5.21c0-0.626-0.207-1.042-0.625-1.457c-0.418-0.626-3.96-2.087-4.793-2.087
			c-0.626,0-1.041,0.21-1.459,0.626l-3.544,3.543l-5.836-5.836l3.544-3.543c0.418-0.416,0.624-0.832,0.624-1.457
			c0-0.416-0.206-0.836-0.416-1.252c-0.208-0.415-0.834-2.082-1.042-2.502c-0.209-1.041-1.041-1.667-2.084-1.667h-5.211v-8.334
			h5.211c0.625,0,1.043-0.21,1.459-0.626c0.625-0.419,2.083-3.963,2.083-4.795c0-0.625-0.206-1.041-0.624-1.46l-3.544-3.54
			l5.836-5.836l3.544,3.543c0.418,0.416,0.833,0.626,1.459,0.626s0.833-0.21,1.251-0.42c0.416-0.206,2.083-0.831,2.501-1.041
			c1.041-0.21,1.666-1.041,1.666-2.083v-5.21h8.337v5.21c0,0.626,0.21,1.042,0.625,1.457c0.416,0.626,3.96,2.087,4.795,2.087
			c0.626,0,1.041-0.21,1.457-0.626l3.544-3.543l5.836,5.836l-3.544,3.54c-0.415,0.419-0.625,0.835-0.625,1.46
			c0,0.416,0.21,0.832,0.417,1.252c0.208,0.415,0.834,2.082,1.044,2.498c0.206,1.045,1.041,1.671,2.082,1.671h5.211V100.515z"/>
		<path fill="#FFFFFF" d="M96.348,88.012c-4.587,0-8.337,3.749-8.337,8.334s3.75,8.338,8.337,8.338c4.585,0,8.336-3.753,8.336-8.338
			S100.933,88.012,96.348,88.012z M96.348,100.515c-2.295,0-4.17-1.876-4.17-4.169c0-2.292,1.875-4.165,4.17-4.165
			c2.29,0,4.167,1.873,4.167,4.165C100.515,98.639,98.638,100.515,96.348,100.515z"/>
		<path fill="#FFFFFF" d="M52.37,53.621l-8.336-16.673c-0.625-1.458-3.125-1.458-3.751,0l-8.336,16.673
			c-0.418,0.416-0.418,1.041-0.209,1.667v70.238h4.168V56.749h4.168v68.777h4.169V56.749h4.168v68.777h4.168V54.872
			C52.579,54.456,52.579,54.037,52.37,53.621z M37.157,52.58l5.001-10.005L47.16,52.58H37.157z"/>
		<path fill="#FFFFFF" d="M23.4,27.569H2.559c-1.251,0-2.084,0.835-2.084,2.086v95.871h4.168v-6.251h10.421v-4.17H4.643v-14.59
			h10.421v-4.169H4.643V79.673h10.421v-4.169H4.643V58.832h10.421v-4.169H4.643V42.159h10.421V37.99H4.643v-6.252h16.674v93.788
			h4.168V29.655C25.484,28.404,24.651,27.569,23.4,27.569z"/>
		<rect x="10.896" y="10.896" fill="#FFFFFF" width="25.01" height="4.169"/>
		<rect x="40.074" y="10.896" fill="#FFFFFF" width="8.337" height="4.169"/>
		<rect x="27.569" y="19.234" fill="#FFFFFF" width="20.842" height="4.166"/>
		<rect x="73.421" y="35.907" fill="#FFFFFF" width="41.684" height="4.169"/>
		<rect x="60.916" y="46.328" fill="#FFFFFF" width="37.516" height="4.169"/>
		<rect x="60.916" y="56.749" fill="#FFFFFF" width="54.189" height="4.169"/>
		<rect x="60.916" y="65.083" fill="#FFFFFF" width="12.505" height="4.169"/>
		<rect x="102.599" y="46.328" fill="#FFFFFF" width="12.506" height="4.169"/>
	</g>
</g>
</svg>
