<?xml version="1.0" encoding="utf-8"?>
<!-- Generator: Adobe Illustrator 16.0.2, SVG Export Plug-In . SVG Version: 6.00 Build 0)  -->
<!DOCTYPE svg PUBLIC "-//W3C//DTD SVG 1.1//EN" "http://www.w3.org/Graphics/SVG/1.1/DTD/svg11.dtd">
<svg version="1.1" id="Слой_1" xmlns="http://www.w3.org/2000/svg" xmlns:xlink="http://www.w3.org/1999/xlink" x="0px" y="0px"
	 width="126px" height="126px" viewBox="0 0 126 126" enable-background="new 0 0 126 126" xml:space="preserve">
<g>
	<path fill="#FFFFFF" d="M1.789,124.746c1.646-4.83,9.179-26.431,13.829-31.078c1.276-1.276,2.75-2.278,4.384-2.985l0.68-0.291
		l-2.692-2.693c-0.571-0.569-0.763-1.405-0.499-2.179c1-2.752,2.167-5.591,3.471-8.435l0.245-0.536L2.668,71.382l-0.021-0.004
		c-0.052-0.009-0.212-0.059-0.324-0.096C2.049,71.187,1.8,71.028,1.592,70.82L1.569,70.8c-0.653-0.652-0.8-1.676-0.364-2.486
		c0.002,0,0.071-0.116,0.096-0.153l0.021-0.029c2.715-4.516,6.024-8.737,9.836-12.547C21.716,45.025,35.349,38.5,48.565,37.681
		l0.189-0.012l0.133-0.133C59.922,26.521,72.628,17.353,85.636,11.02c12.581-6.124,25.435-9.611,37.175-10.087
		c0.617-0.029,1.234,0.2,1.647,0.611c0.406,0.407,0.639,1.035,0.609,1.64c-0.476,11.744-3.966,24.598-10.089,37.179
		c-6.331,13.007-15.5,25.714-26.514,36.748l-0.134,0.137l-0.012,0.188c-0.819,13.215-7.344,26.847-17.903,37.405
		c-3.806,3.808-8.025,7.117-12.543,9.84c-0.052,0.033-0.206,0.125-0.206,0.125c-0.792,0.428-1.813,0.278-2.463-0.37l0,0
		c-0.223-0.225-0.385-0.482-0.491-0.77c-0.027-0.087-0.081-0.262-0.096-0.328l-5.163-18.545l-0.534,0.245
		c-2.812,1.289-5.653,2.457-8.451,3.476c-0.761,0.262-1.594,0.07-2.17-0.503l-2.147-2.153l-0.295,0.678
		c-0.708,1.638-1.715,3.113-2.987,4.386C28.22,115.567,6.62,123.1,1.789,124.746z M23.89,93.893
		c-1.975,0.315-3.806,1.264-5.294,2.747c-0.627,0.637-3.06,3.696-8.092,16.521c-0.551,1.409-0.991,2.557-1.386,3.617l-0.385,1.035
		l1.033-0.392c1.364-0.515,2.559-0.973,3.654-1.404c12.791-5.018,15.842-7.445,16.472-8.069c1.463-1.468,2.438-3.347,2.75-5.296
		l0.042-0.254l-8.541-8.547L23.89,93.893z M88.651,14.246c-6.388,3.018-12.7,6.729-18.759,11.025
		c-6.348,4.5-12.45,9.661-18.133,15.341c-5.676,5.679-10.837,11.779-15.339,18.135c-4.357,6.143-8.108,12.539-11.149,19.012
		c-1.185,2.523-2.272,5.088-3.234,7.62l-0.114,0.303l18.395,18.396l0.304-0.116c2.569-0.973,5.134-2.063,7.618-3.234
		c6.473-3.039,12.871-6.788,19.017-11.149c6.362-4.506,12.463-9.669,18.133-15.34c5.689-5.69,10.851-11.792,15.34-18.132
		c4.301-6.065,8.011-12.375,11.024-18.757l0.152-0.32L88.972,14.094L88.651,14.246z M42.753,42.682
		c-4.379,0.877-8.757,2.403-13.009,4.536c-5.674,2.843-10.925,6.657-15.61,11.342c-2.758,2.756-5.244,5.75-7.392,8.897l-0.395,0.578
		l16.732,4.66l0.187-0.366c5.196-10.142,11.912-19.838,19.958-28.82l1.006-1.125L42.753,42.682z M82.49,82.772
		c-8.98,8.048-18.679,14.762-28.821,19.958l-0.366,0.187l4.658,16.729l0.58-0.391c3.139-2.142,6.134-4.627,8.901-7.392
		c4.677-4.673,8.492-9.927,11.342-15.605c2.127-4.24,3.652-8.618,4.534-13.012l0.297-1.48L82.49,82.772z M120.144,5.314
		c-8.46,0.697-17.329,2.937-26.36,6.658l-0.694,0.287l20.652,20.652l0.287-0.696c3.723-9.036,5.961-17.905,6.657-26.36l0.048-0.59
		L120.144,5.314z"/>
	<path fill="#FFFFFF" d="M70.946,55.054c-1.875-1.875-2.908-4.367-2.908-7.017c0-2.65,1.033-5.145,2.908-7.02
		c1.877-1.875,4.369-2.908,7.02-2.908c2.647,0,5.14,1.033,7.017,2.908c3.868,3.871,3.868,10.167,0,14.037
		c-1.874,1.875-4.369,2.906-7.017,2.906C75.315,57.959,72.823,56.929,70.946,55.054L70.946,55.054z M82.004,43.994
		c-1.078-1.079-2.515-1.673-4.038-1.673c-1.528,0-2.964,0.595-4.045,1.673c-1.079,1.081-1.673,2.515-1.673,4.043
		c0,1.525,0.594,2.962,1.673,4.041c1.081,1.081,2.517,1.675,4.045,1.673c1.525,0.002,2.96-0.595,4.038-1.673
		C84.23,49.849,84.23,46.222,82.004,43.994L82.004,43.994z"/>
	<path fill="#FFFFFF" d="M48.818,77.164c-1.869-1.87-2.899-4.36-2.899-7.009c0-2.652,1.033-5.146,2.908-7.018
		c1.875-1.875,4.367-2.908,7.019-2.908c2.65,0,5.143,1.033,7.017,2.908c1.877,1.876,2.908,4.366,2.908,7.018
		s-1.032,5.146-2.908,7.018c-1.875,1.874-4.367,2.905-7.017,2.905c-2.652,0-5.144-1.031-7.017-2.905L48.818,77.164z M59.878,66.106
		c-1.075-1.073-2.507-1.666-4.033-1.666c-1.528,0-2.964,0.593-4.045,1.67c-1.077,1.081-1.669,2.52-1.669,4.045
		s0.592,2.96,1.669,4.041c1.081,1.081,2.517,1.675,4.045,1.675s2.964-0.594,4.041-1.675c1.077-1.077,1.673-2.516,1.673-4.041
		s-0.592-2.96-1.669-4.036L59.878,66.106z"/>
</g>
</svg>
