<?xml version="1.0" encoding="utf-8"?>
<!-- Generator: Adobe Illustrator 16.0.2, SVG Export Plug-In . SVG Version: 6.00 Build 0)  -->
<!DOCTYPE svg PUBLIC "-//W3C//DTD SVG 1.1//EN" "http://www.w3.org/Graphics/SVG/1.1/DTD/svg11.dtd">
<svg version="1.1" id="Слой_1" xmlns="http://www.w3.org/2000/svg" xmlns:xlink="http://www.w3.org/1999/xlink" x="0px" y="0px"
	 width="126px" height="126px" viewBox="0 0 126 126" enable-background="new 0 0 126 126" xml:space="preserve">
<g>
	<g>
		<g>
			<path fill="#FFFFFF" d="M123.745,13.029H2.256c-1.157,0-2.095,0.938-2.095,2.095v95.752c0,1.156,0.938,2.095,2.095,2.095h121.488
				c1.156,0,2.095-0.938,2.095-2.095V15.124C125.839,13.967,124.9,13.029,123.745,13.029z M121.649,108.781H4.351V17.219h117.299
				V108.781L121.649,108.781z"/>
		</g>
	</g>
	<g>
		<g>
			<path fill="#FFFFFF" d="M22.295,31.742c-6.545,0-11.87,5.324-11.87,11.869S15.75,55.48,22.295,55.48
				c6.545,0,11.869-5.324,11.869-11.869S28.84,31.742,22.295,31.742z M22.295,35.932c0.489,0,0.966,0.047,1.43,0.135L21,41.518
				h-6.093C15.821,38.297,18.786,35.932,22.295,35.932z M22.295,51.291c-3.509,0-6.474-2.365-7.388-5.586h6.98l6.466,2.618
				C26.946,50.128,24.754,51.291,22.295,51.291z M29.929,44.441l-4.747-1.922l2.289-4.578c1.538,1.406,2.504,3.427,2.504,5.67
				C29.975,43.893,29.958,44.169,29.929,44.441z"/>
		</g>
	</g>
	<g>
		<g>
			<path fill="#FFFFFF" d="M73.543,36.164H39.051c-1.157,0-2.094,0.938-2.094,2.094c0,1.157,0.938,2.095,2.094,2.095h34.492
				c1.157,0,2.095-0.938,2.095-2.095S74.7,36.164,73.543,36.164z"/>
		</g>
	</g>
	<g>
		<g>
			<path fill="#FFFFFF" d="M64.565,44.139H39.051c-1.157,0-2.094,0.938-2.094,2.096c0,1.156,0.938,2.094,2.094,2.094h25.514
				c1.158,0,2.096-0.938,2.096-2.094C66.661,45.077,65.723,44.139,64.565,44.139z"/>
		</g>
	</g>
	<g>
		<g>
			<path fill="#FFFFFF" d="M114.807,80.411H64.815c-1.157,0-2.095,0.938-2.095,2.096c0,1.156,0.938,2.094,2.095,2.094h49.991
				c1.157,0,2.095-0.938,2.095-2.094C116.901,81.35,115.964,80.411,114.807,80.411z"/>
		</g>
	</g>
	<g>
		<g>
			<path fill="#FFFFFF" d="M114.807,88.231H76.824c-1.156,0-2.094,0.938-2.094,2.096c0,1.156,0.938,2.094,2.094,2.094h37.982
				c1.157,0,2.095-0.938,2.095-2.094C116.901,89.17,115.964,88.231,114.807,88.231z"/>
		</g>
	</g>
	<g>
		<g>
			<path fill="#FFFFFF" d="M114.807,96.052H55.739c-1.156,0-2.094,0.938-2.094,2.094c0,1.157,0.938,2.096,2.094,2.096h59.067
				c1.157,0,2.095-0.938,2.095-2.096C116.901,96.99,115.964,96.052,114.807,96.052z"/>
		</g>
	</g>
	<g>
		<g>
			<path fill="#FFFFFF" d="M65.683,25.025l0.494-0.494c0.817-0.817,0.817-2.145,0-2.962c-0.818-0.817-2.145-0.817-2.962,0
				l-0.494,0.494l-0.494-0.495c-0.818-0.817-2.144-0.817-2.961,0c-0.818,0.818-0.818,2.146,0,2.963l0.494,0.494l-0.494,0.494
				c-0.818,0.818-0.818,2.145,0,2.962c0.408,0.409,0.945,0.614,1.48,0.614c0.536,0,1.072-0.205,1.481-0.614l0.494-0.494l0.494,0.494
				c0.409,0.409,0.945,0.614,1.481,0.614s1.072-0.205,1.481-0.614c0.817-0.817,0.817-2.145,0-2.962L65.683,25.025z"/>
		</g>
	</g>
	<g>
		<g>
			<path fill="#FFFFFF" d="M83.388,22.93h-11.73c-1.156,0-2.094,0.938-2.094,2.096c0,1.156,0.938,2.094,2.094,2.094h11.73
				c1.157,0,2.095-0.938,2.095-2.094C85.482,23.868,84.545,22.93,83.388,22.93z"/>
		</g>
	</g>
	<g>
		<g>
			<path fill="#FFFFFF" d="M54.342,22.93h-11.73c-1.157,0-2.094,0.938-2.094,2.096c0,1.156,0.938,2.094,2.094,2.094h11.73
				c1.157,0,2.094-0.938,2.094-2.094C56.437,23.868,55.499,22.93,54.342,22.93z"/>
		</g>
	</g>
	<g>
		<g>
			<path fill="#FFFFFF" d="M112.615,40.145c-3.297-3.297-7.682-5.111-12.344-5.111s-9.046,1.815-12.343,5.111
				c-6.806,6.807-6.806,17.881,0,24.686c3.297,3.297,7.681,5.113,12.343,5.113s9.047-1.816,12.344-5.113
				C119.42,58.025,119.42,46.951,112.615,40.145z M87.19,54.642c-0.665-4.073,0.566-8.399,3.701-11.534
				c0.718-0.717,1.504-1.338,2.341-1.865l4.227,9.976L87.19,54.642z M109.652,61.868c-2.506,2.506-5.837,3.886-9.381,3.886
				c-3.543,0-6.874-1.38-9.381-3.886c-0.98-0.98-1.774-2.08-2.384-3.249l12.428-4.145c0.554-0.185,1.006-0.592,1.246-1.124
				c0.241-0.534,0.248-1.142,0.02-1.68l-5.111-12.065c1.029-0.252,2.096-0.383,3.183-0.383c3.544,0,6.875,1.379,9.381,3.885
				C114.824,48.28,114.824,56.696,109.652,61.868z"/>
		</g>
	</g>
	<g>
		<g>
			<path fill="#FFFFFF" d="M18.874,87.159h-7.541c-1.157,0-2.095,0.938-2.095,2.094v8.894c0,1.157,0.938,2.095,2.095,2.095h7.541
				c1.157,0,2.095-0.938,2.095-2.095v-8.894C20.969,88.097,20.031,87.159,18.874,87.159z M16.78,96.052h-3.352v-4.704h3.352V96.052z
				"/>
		</g>
	</g>
	<g>
		<g>
			<path fill="#FFFFFF" d="M32.71,81.767h-7.541c-1.157,0-2.095,0.938-2.095,2.096v14.283c0,1.157,0.938,2.096,2.095,2.096h7.541
				c1.157,0,2.095-0.938,2.095-2.096V83.862C34.805,82.705,33.867,81.767,32.71,81.767z M30.615,96.052h-3.351V85.956h3.351V96.052z
				"/>
		</g>
	</g>
	<g>
		<g>
			<path fill="#FFFFFF" d="M46.546,75.211h-7.541c-1.157,0-2.094,0.938-2.094,2.096v20.839c0,1.158,0.938,2.096,2.094,2.096h7.541
				c1.157,0,2.095-0.938,2.095-2.096V77.307C48.641,76.148,47.703,75.211,46.546,75.211z M44.451,96.052H41.1V79.4h3.351V96.052z"/>
		</g>
	</g>
	<g>
		<g>
			<path fill="#FFFFFF" d="M76.966,62.538H46.802c-1.157,0-2.095,0.938-2.095,2.095c0,1.156,0.938,2.094,2.095,2.094h30.164
				c1.156,0,2.094-0.938,2.094-2.094C79.06,63.476,78.122,62.538,76.966,62.538z"/>
		</g>
	</g>
	<g>
		<g>
			<circle fill="#FFFFFF" cx="116.482" cy="21.597" r="2.095"/>
		</g>
	</g>
	<g>
		<g>
			<circle fill="#FFFFFF" cx="116.482" cy="104.362" r="2.094"/>
		</g>
	</g>
	<g>
		<g>
			<circle fill="#FFFFFF" cx="9.518" cy="104.362" r="2.094"/>
		</g>
	</g>
	<g>
		<g>
			<circle fill="#FFFFFF" cx="9.518" cy="21.597" r="2.095"/>
		</g>
	</g>
</g>
</svg>
