<?xml version="1.0" encoding="utf-8"?>
<!-- Generator: Adobe Illustrator 16.2.0, SVG Export Plug-In . SVG Version: 6.00 Build 0)  -->
<!DOCTYPE svg PUBLIC "-//W3C//DTD SVG 1.1//EN" "http://www.w3.org/Graphics/SVG/1.1/DTD/svg11.dtd">
<svg version="1.1" id="Слой_1" xmlns="http://www.w3.org/2000/svg" xmlns:xlink="http://www.w3.org/1999/xlink" x="0px" y="0px"
	 width="136px" height="52px" viewBox="0 0 136 52" enable-background="new 0 0 136 52" xml:space="preserve">
<g>
	<g>
		<g>
			<path fill="#FFFFFF" d="M100.052,42.507c0-1.345,0.987-2.536,2.458-2.536c0.827,0,1.338,0.238,1.828,0.652l-0.357,0.42
				c-0.377-0.329-0.798-0.561-1.491-0.561c-1.085,0-1.862,0.918-1.862,2.024c0,1.169,0.748,2.038,1.939,2.038
				c0.561,0,1.078-0.217,1.414-0.49v-1.219h-1.491v-0.498h2.024v1.955c-0.455,0.406-1.143,0.749-1.969,0.749
				C101.004,45.042,100.052,43.922,100.052,42.507z"/>
			<path fill="#FFFFFF" d="M107.857,40.055h2.107c0.603,0,1.086,0.183,1.395,0.49c0.238,0.238,0.377,0.582,0.377,0.981
				c0,0.812-0.56,1.288-1.33,1.429l1.506,2.003h-0.68l-1.422-1.905h-1.4v1.905h-0.553V40.055z M109.916,42.556
				c0.735,0,1.261-0.378,1.261-1.022c0-0.603-0.462-0.967-1.254-0.967h-1.513v1.989H109.916z"/>
			<path fill="#FFFFFF" d="M114.801,42.507c0-1.353,1.016-2.536,2.507-2.536c1.492,0,2.493,1.17,2.493,2.536
				c0,1.352-1.016,2.535-2.507,2.535S114.801,43.873,114.801,42.507z M119.227,42.507c0-1.114-0.813-2.024-1.933-2.024
				s-1.919,0.896-1.919,2.024c0,1.113,0.813,2.024,1.933,2.024S119.227,43.635,119.227,42.507z"/>
			<path fill="#FFFFFF" d="M122.99,42.906v-2.852h0.554v2.816c0,1.057,0.561,1.652,1.499,1.652c0.903,0,1.479-0.546,1.479-1.617
				v-2.852h0.553v2.809c0,1.43-0.82,2.172-2.045,2.172C123.817,45.035,122.99,44.293,122.99,42.906z"/>
			<path fill="#FFFFFF" d="M130.48,40.055h1.835c1.106,0,1.835,0.589,1.835,1.569c0,1.058-0.883,1.604-1.926,1.604h-1.191v1.729
				h-0.553V40.055z M132.246,42.724c0.813,0,1.344-0.435,1.344-1.093c0-0.7-0.525-1.064-1.316-1.064h-1.24v2.157H132.246z"/>
		</g>
		<g>
			<polygon fill="#FFFFFF" points="69.426,15.109 64.641,15.109 57.335,22.981 57.335,15.109 53.373,15.109 53.373,33.117 
				57.335,33.117 57.335,27.611 59.418,25.451 65.001,33.117 69.761,33.117 62.094,22.75 			"/>
			<path fill="#FFFFFF" d="M87.717,33.117l-4.399-6.432c2.29-0.849,3.858-2.675,3.858-5.583c0-1.75-0.539-3.165-1.543-4.167
				c-1.184-1.184-2.959-1.827-5.248-1.827h-8.232v18.008h3.962v-5.763h3.062L91.17,45.042h4.631l-8.109-11.925H87.717z
				 M76.114,23.855v-5.171h3.937c1.929,0,3.112,0.875,3.112,2.573c0,1.569-1.106,2.598-3.036,2.598H76.114z"/>
			<rect x="90.932" y="15.109" fill="#FFFFFF" width="3.961" height="18.008"/>
			<path fill="#FFFFFF" d="M108.193,14.8c-5.557,0-9.596,4.194-9.596,9.313c0,5.171,3.987,9.313,9.544,9.313
				c5.558,0,9.597-4.193,9.597-9.313C117.738,18.942,113.75,14.8,108.193,14.8z M108.193,29.773c-3.189,0-5.454-2.573-5.454-5.661
				c0-3.138,2.212-5.66,5.402-5.66s5.454,2.573,5.454,5.66C113.596,27.252,111.383,29.773,108.193,29.773z"/>
			<path fill="#FFFFFF" d="M128.439,22.338c-3.113-0.797-3.885-1.184-3.885-2.367c0-0.926,0.797-1.621,2.314-1.621
				c1.519,0,3.088,0.669,4.683,1.775l2.058-2.984c-1.826-1.466-4.064-2.29-6.688-2.29c-3.679,0-6.303,2.161-6.303,5.428
				c0,3.627,2.341,4.631,5.969,5.557c3.01,0.772,3.627,1.287,3.627,2.291c0,1.105-0.978,1.748-2.599,1.748
				c-2.058,0-3.756-0.848-5.377-2.186l-2.34,2.804c2.16,1.929,4.913,2.882,7.641,2.882c3.885,0,6.611-2.008,6.611-5.583
				C134.15,24.602,132.092,23.29,128.439,22.338z"/>
		</g>
	</g>
	<g>
		<polygon fill="#FFFFFF" points="22.752,1.865 1.851,13.933 1.851,24.019 5.811,24.019 5.811,16.219 22.752,6.437 39.694,16.219 
			39.694,35.781 22.752,45.563 5.811,35.781 5.811,27.98 1.851,27.98 1.851,38.067 22.752,50.135 43.654,38.067 43.654,13.933 		"/>
		<polygon fill="#FFFFFF" points="22.752,14.64 12.914,20.321 12.914,24.019 12.914,27.98 12.914,31.681 22.752,37.36 32.59,31.681 
			32.59,20.321 		"/>
	</g>
</g>
</svg>
