<?xml version="1.0" encoding="utf-8"?>
<!-- Generator: Adobe Illustrator 16.2.0, SVG Export Plug-In . SVG Version: 6.00 Build 0)  -->
<!DOCTYPE svg PUBLIC "-//W3C//DTD SVG 1.1//EN" "http://www.w3.org/Graphics/SVG/1.1/DTD/svg11.dtd">
<svg version="1.1" id="Слой_1" xmlns="http://www.w3.org/2000/svg" xmlns:xlink="http://www.w3.org/1999/xlink" x="0px" y="0px"
	 width="127px" height="127px" viewBox="0 0 127 127" enable-background="new 0 0 127 127" xml:space="preserve">
<g>
	<path fill="#D53131" d="M63.5,40.275c-6.404,0-11.613,5.209-11.613,11.613c0,3.87,1.961,7.499,5.162,9.645v4.547h12.902v-4.547
		c3.201-2.146,5.162-5.775,5.162-9.645C75.113,45.484,69.904,40.275,63.5,40.275z M63.5,54.468c-1.426,0-2.58-1.155-2.58-2.581
		s1.154-2.581,2.58-2.581c1.425,0,2.58,1.155,2.58,2.581S64.926,54.468,63.5,54.468z"/>
	<g>
		<path fill="#333333" d="M28.678,36.871c0-6.121-3.863-11.341-9.271-13.396c4.252-1.936,7.222-6.215,7.222-11.185
			C26.629,5.513,21.118,0,14.339,0s-12.29,5.512-12.29,12.29c0,4.969,2.969,9.249,7.222,11.185C3.864,25.53,0,30.75,0,36.871v6.146
			h28.678V36.871z M6.146,12.291c0-4.519,3.675-8.193,8.193-8.193c4.519,0,8.192,3.675,8.192,8.193c0,4.519-3.673,8.194-8.192,8.194
			C9.821,20.484,6.146,16.81,6.146,12.291z M24.581,38.92H4.097v-2.049c0-5.647,4.594-10.241,10.242-10.241
			c5.647,0,10.241,4.594,10.241,10.241V38.92z"/>
		<path fill="#333333" d="M68.568,107.459c4.252-1.936,7.223-6.215,7.223-11.186c0-6.777-5.512-12.289-12.291-12.289
			c-6.777,0-12.29,5.512-12.29,12.289c0,4.971,2.97,9.25,7.222,11.186c-5.406,2.055-9.271,7.275-9.271,13.396V127H77.84v-6.145
			C77.84,114.734,73.977,109.514,68.568,107.459z M55.307,96.273c0-4.518,3.674-8.191,8.193-8.191c4.519,0,8.193,3.674,8.193,8.191
			c0,4.521-3.674,8.195-8.193,8.195C58.981,104.469,55.307,100.795,55.307,96.273z M73.742,122.904H53.258v-2.049
			c0-5.646,4.594-10.242,10.242-10.242c5.648,0,10.242,4.596,10.242,10.242V122.904z"/>
		<path fill="#333333" d="M117.73,23.475c4.252-1.936,7.221-6.215,7.221-11.185c0-6.778-5.512-12.29-12.289-12.29
			s-12.291,5.512-12.291,12.29c0,4.969,2.971,9.249,7.223,11.185c-5.408,2.055-9.271,7.275-9.271,13.396v6.146H127v-6.146
			C127,30.75,123.137,25.53,117.73,23.475z M104.469,12.291c0-4.519,3.674-8.193,8.193-8.193s8.193,3.675,8.193,8.193
			c0,4.519-3.674,8.194-8.193,8.194S104.469,16.81,104.469,12.291z M122.904,38.92H102.42v-2.049
			c0-5.647,4.594-10.241,10.242-10.241c5.646,0,10.242,4.594,10.242,10.241V38.92z"/>
		
			<rect x="70.034" y="69.646" transform="matrix(0.5635 -0.8261 0.8261 0.5635 -16.7545 111.6785)" fill="#333333" width="54.541" height="4.095"/>
		
			<rect x="27.652" y="44.425" transform="matrix(0.8261 -0.5636 0.5636 0.8261 -35.2396 29.2086)" fill="#333333" width="4.096" height="54.538"/>
		<rect x="34.412" y="4.097" fill="#333333" width="58.178" height="4.097"/>
		<path fill="#333333" d="M72.719,63.5h-7.168V50.833c2.377-0.848,4.096-3.102,4.096-5.768c0-3.388-2.758-6.145-6.146-6.145
			c-3.389,0-6.146,2.757-6.146,6.145c0,2.667,1.719,4.92,4.097,5.768V63.5h-7.17c-2.824,0-5.12,2.296-5.12,5.121
			c0,1.822,0.963,3.412,2.398,4.322c-0.217,0.566-0.35,1.178-0.35,1.822c0,2.826,2.296,5.121,5.12,5.121H70.67
			c2.824,0,5.121-2.295,5.121-5.121c0-0.645-0.133-1.256-0.35-1.822c1.436-0.91,2.398-2.5,2.398-4.322
			C77.84,65.797,75.543,63.5,72.719,63.5z M63.5,43.017c1.132,0,2.05,0.917,2.05,2.048c0,1.13-0.918,2.048-2.05,2.048
			c-1.131,0-2.049-0.918-2.049-2.048C61.452,43.934,62.37,43.017,63.5,43.017z M54.282,67.596h18.437
			c0.563,0,1.023,0.463,1.023,1.025s-0.461,1.025-1.023,1.025H70.67H56.331h-2.049c-0.563,0-1.023-0.463-1.023-1.025
			S53.719,67.596,54.282,67.596z M70.67,75.791H56.331c-0.563,0-1.023-0.461-1.023-1.025c0-0.563,0.461-1.023,1.023-1.023H70.67
			c0.563,0,1.023,0.461,1.023,1.023C71.693,75.33,71.232,75.791,70.67,75.791z"/>
		<rect x="61.452" y="14.339" fill="#333333" width="4.099" height="8.193"/>
		
			<rect x="48.137" y="17.908" transform="matrix(0.8661 -0.4998 0.4998 0.8661 -4.2801 28.0288)" fill="#333333" width="4.097" height="8.194"/>
		
			<rect x="38.39" y="27.661" transform="matrix(0.4996 -0.8662 0.8662 0.4996 -7.2758 50.9204)" fill="#333333" width="4.097" height="8.194"/>
		<rect x="32.774" y="43.017" fill="#333333" width="8.195" height="4.097"/>
		
			<rect x="36.342" y="56.333" transform="matrix(0.8661 -0.5 0.5 0.8661 -23.7712 28.0373)" fill="#333333" width="8.193" height="4.096"/>
		
			<rect x="84.514" y="54.283" transform="matrix(0.4997 -0.8662 0.8662 0.4997 -7.263 104.1835)" fill="#333333" width="4.096" height="8.193"/>
		<rect x="86.033" y="43.017" fill="#333333" width="8.193" height="4.097"/>
		
			<rect x="82.469" y="29.702" transform="matrix(0.8661 -0.4998 0.4998 0.8661 -4.2811 47.5165)" fill="#333333" width="8.195" height="4.097"/>
		
			<rect x="72.718" y="19.951" transform="matrix(0.5001 -0.866 0.866 0.5001 19.3501 77.5169)" fill="#333333" width="8.194" height="4.096"/>
	</g>
</g>
</svg>
