<?xml version="1.0" encoding="utf-8"?>
<!-- Generator: Adobe Illustrator 16.2.0, SVG Export Plug-In . SVG Version: 6.00 Build 0)  -->
<!DOCTYPE svg PUBLIC "-//W3C//DTD SVG 1.1//EN" "http://www.w3.org/Graphics/SVG/1.1/DTD/svg11.dtd">
<svg version="1.1" id="Слой_1" xmlns="http://www.w3.org/2000/svg" xmlns:xlink="http://www.w3.org/1999/xlink" x="0px" y="0px"
	 width="127px" height="127px" viewBox="0 0 127 127" enable-background="new 0 0 127 127" xml:space="preserve">
<path fill="#333333" d="M50.396,36.264c0.77-0.509,1.582-0.976,2.426-1.388v3.986H74.18v-3.986c0.844,0.412,1.654,0.879,2.424,1.388
	c2.607,1.727,6.109,1.354,8.347-0.885c1.451-1.454,2.151-3.456,1.923-5.499c-0.224-2.013-1.331-3.785-3.034-4.857
	c-2.739-1.73-6.882-3.67-12.444-4.691c1.715-1.897,2.785-4.385,2.785-7.137c0-5.897-4.791-10.695-10.68-10.695
	S52.822,7.297,52.822,13.194c0,2.752,1.072,5.239,2.783,7.137c-5.563,1.021-9.707,2.961-12.445,4.691
	c-1.703,1.074-2.809,2.845-3.035,4.857c-0.227,2.043,0.475,4.047,1.926,5.499C44.285,37.617,47.791,37.987,50.396,36.264z
	 M57.094,13.194c0-3.539,2.875-6.418,6.406-6.418c3.533,0,6.409,2.879,6.409,6.418c0,3.536-2.876,6.416-6.409,6.416
	C59.969,19.61,57.094,16.73,57.094,13.194z M44.374,30.354c0.045-0.42,0.247-1.199,1.065-1.717
	c3.432-2.165,9.354-4.748,18.061-4.748c8.709,0,14.629,2.583,18.062,4.75c0.82,0.518,1.021,1.295,1.066,1.718
	c0.084,0.743-0.171,1.472-0.697,2c-0.804,0.802-2.054,0.946-2.971,0.34c-1.904-1.263-4-2.282-6.232-3.038l-2.818-0.957v5.882H57.094
	v-5.882l-2.821,0.955c-2.231,0.756-4.325,1.775-6.231,3.039c-0.918,0.608-2.168,0.461-2.967-0.342
	C44.545,31.826,44.291,31.097,44.374,30.354z"/>
<path fill="#333333" d="M25.124,78.908c2.815-1.436,4.255-4.663,3.423-7.678c-0.248-0.888-0.438-1.804-0.572-2.737l3.785,1.231
	l6.601-20.343l-3.782-1.23c0.652-0.674,1.346-1.303,2.066-1.883c2.443-1.943,3.172-5.4,1.736-8.22
	c-0.932-1.829-2.615-3.118-4.625-3.53c-1.984-0.405-4.006,0.096-5.555,1.388c-2.488,2.071-5.61,5.415-8.295,10.396
	c-1.321-2.295-3.383-4.026-5.921-4.853C8.391,39.633,2.35,42.707,0.529,48.315c-0.883,2.719-0.656,5.616,0.639,8.161
	c1.297,2.543,3.505,4.433,6.217,5.314c1.088,0.354,2.199,0.53,3.313,0.53c1.479,0,2.943-0.331,4.322-0.943
	c-0.744,5.598-0.184,10.134,0.611,13.269c0.496,1.956,1.838,3.559,3.682,4.394c0.885,0.403,1.828,0.603,2.768,0.603
	C23.124,79.643,24.164,79.396,25.124,78.908z M8.705,57.724c-1.628-0.528-2.952-1.662-3.727-3.189
	c-0.777-1.527-0.914-3.264-0.385-4.896c0.877-2.707,3.398-4.434,6.097-4.434c0.657,0,1.321,0.102,1.976,0.314
	c3.357,1.092,5.204,4.717,4.114,8.081c0,0,0,0.003-0.001,0.003c0,0,0,0.004-0.002,0.006C15.688,56.97,12.068,58.819,8.705,57.724z
	 M19.772,73.595c-0.999-3.938-1.622-10.373,1.069-18.672c2.691-8.295,6.975-13.132,10.094-15.729
	c0.511-0.425,1.049-0.537,1.469-0.537c0.191,0,0.361,0.022,0.49,0.05c0.73,0.15,1.341,0.617,1.68,1.285
	c0.516,1.014,0.268,2.247-0.592,2.93c-1.792,1.432-3.41,3.113-4.813,5.002l-1.772,2.389l5.583,1.82l-3.962,12.202l-5.583-1.815
	l0.034,2.98c0.028,2.361,0.351,4.673,0.96,6.875c0.295,1.061-0.229,2.202-1.243,2.719c-0.664,0.339-1.437,0.357-2.11,0.049
	C20.691,74.97,20.011,74.537,19.772,73.595z"/>
<path fill="#333333" d="M55.002,102.851c-0.928-0.044-1.855-0.142-2.781-0.305l2.34-3.228L37.285,86.747l-2.344,3.227
	c-0.438-0.836-0.822-1.688-1.145-2.553c-1.095-2.924-4.147-4.696-7.271-4.195c-2.024,0.32-3.769,1.531-4.781,3.313
	c-1,1.761-1.144,3.848-0.399,5.72c1.2,3.009,3.409,7.019,7.312,11.116c-2.592,0.55-4.87,1.979-6.438,4.14
	c-1.678,2.309-2.356,5.135-1.91,7.958s1.963,5.301,4.27,6.979c1.844,1.344,4.019,2.049,6.258,2.049c0.561,0,1.125-0.045,1.691-0.136
	c2.82-0.447,5.294-1.966,6.973-4.275c1.613-2.228,2.205-4.87,1.935-7.412c5.101,2.448,9.591,3.315,12.819,3.528
	c0.146,0.01,0.293,0.016,0.438,0.016c1.852,0,3.605-0.774,4.871-2.162c1.38-1.517,1.99-3.551,1.668-5.582
	C60.737,105.354,58.116,102.987,55.002,102.851z M36.046,117.572c-1.008,1.388-2.491,2.298-4.185,2.567
	c-1.674,0.265-3.383-0.14-4.767-1.146c-1.385-1.011-2.293-2.497-2.563-4.188c-0.266-1.696,0.141-3.388,1.145-4.774
	c1.008-1.387,2.493-2.298,4.184-2.566c0.339-0.053,0.678-0.081,1.017-0.081c1.341,0,2.645,0.422,3.751,1.229
	C37.482,110.689,38.12,114.712,36.046,117.572z M56.409,111.175c-0.284,0.312-0.866,0.823-1.873,0.76
	c-4.046-0.266-10.353-1.657-17.399-6.785c-7.049-5.131-10.316-10.704-11.82-14.478V90.67c-0.359-0.9-0.063-1.648,0.145-2.013
	c0.367-0.653,1.003-1.09,1.734-1.205c0.13-0.019,0.257-0.031,0.389-0.031c0.979,0,1.875,0.59,2.216,1.5
	c0.797,2.135,1.895,4.196,3.256,6.126l1.722,2.432l3.451-4.757l10.367,7.545l-3.446,4.754l2.835,0.888
	c2.245,0.706,4.543,1.112,6.828,1.213c1.098,0.049,2.021,0.901,2.201,2.022C57.135,109.884,56.912,110.623,56.409,111.175z"/>
<path fill="#333333" d="M98.343,103.375c3.903-4.099,6.112-8.107,7.312-11.116c0.747-1.872,0.601-3.959-0.397-5.72
	c-1.017-1.782-2.76-2.99-4.785-3.313c-3.118-0.499-6.177,1.271-7.269,4.195c-0.323,0.866-0.707,1.721-1.147,2.553l-2.343-3.227
	L72.436,99.318l2.342,3.228c-0.926,0.161-1.853,0.261-2.777,0.305c-3.114,0.137-5.738,2.503-6.233,5.626
	c-0.319,2.028,0.289,4.063,1.669,5.58c1.265,1.385,3.019,2.161,4.87,2.161c0.145,0,0.291-0.006,0.438-0.014
	c3.229-0.212,7.72-1.08,12.818-3.528c-0.271,2.54,0.321,5.186,1.935,7.411h0.002c1.677,2.311,4.151,3.828,6.97,4.276
	c0.567,0.09,1.132,0.134,1.692,0.134c2.239,0,4.413-0.703,6.258-2.047c2.307-1.68,3.823-4.156,4.269-6.98
	c0.447-2.822-0.23-5.648-1.909-7.958C103.212,105.354,100.934,103.925,98.343,103.375z M72.464,111.935
	c-1.017,0.061-1.591-0.452-1.873-0.76c-0.502-0.552-0.722-1.291-0.606-2.025c0.181-1.123,1.106-1.977,2.205-2.023
	c2.284-0.103,4.581-0.509,6.822-1.214l2.838-0.886l-3.448-4.757l10.369-7.543l3.451,4.757l1.722-2.434
	c1.366-1.928,2.46-3.989,3.257-6.125c0.385-1.028,1.474-1.636,2.604-1.472c0.735,0.118,1.367,0.558,1.733,1.204
	c0.21,0.366,0.504,1.114,0.146,2.018c-1.503,3.771-4.775,9.344-11.821,14.475C82.817,110.277,76.513,111.669,72.464,111.935z
	 M102.471,114.806c-0.27,1.691-1.178,3.178-2.562,4.188c-1.384,1.006-3.09,1.41-4.768,1.146c-1.692-0.27-3.177-1.18-4.185-2.567
	c-2.075-2.863-1.439-6.883,1.421-8.962c1.381-1.007,3.071-1.405,4.767-1.146c1.689,0.269,3.176,1.18,4.183,2.566
	C102.332,111.418,102.738,113.109,102.471,114.806z"/>
<path fill="#333333" d="M126.471,48.317c-1.821-5.61-7.863-8.685-13.458-6.868c-2.536,0.826-4.599,2.558-5.918,4.853
	c-2.688-4.98-5.811-8.324-8.297-10.396c-1.551-1.292-3.571-1.794-5.555-1.388c-2.008,0.412-3.693,1.701-4.625,3.53
	c-1.436,2.817-0.704,6.276,1.735,8.22c0.723,0.58,1.414,1.207,2.068,1.883l-3.785,1.23l6.603,20.343l3.784-1.231
	c-0.132,0.935-0.322,1.85-0.569,2.74c-0.835,3.012,0.604,6.239,3.42,7.673c0.961,0.489,2.002,0.737,3.045,0.737
	c0.94,0,1.883-0.2,2.767-0.601c1.843-0.836,3.186-2.437,3.682-4.394h0.003c0.794-3.136,1.354-7.673,0.61-13.271
	c1.38,0.618,2.844,0.944,4.321,0.944c1.111,0,2.228-0.175,3.313-0.528c2.715-0.883,4.919-2.773,6.215-5.316
	C127.126,53.932,127.354,51.032,126.471,48.317z M107.228,73.595c-0.235,0.941-0.918,1.375-1.3,1.548
	c-0.671,0.312-1.443,0.294-2.114-0.05c-1.01-0.515-1.534-1.656-1.24-2.716c0.61-2.205,0.934-4.517,0.96-6.878l0.034-2.98
	l-5.582,1.815l-3.96-12.202l5.581-1.82l-1.773-2.389c-1.401-1.889-3.02-3.57-4.815-5.002c-0.855-0.683-1.106-1.916-0.59-2.93
	c0.341-0.668,0.951-1.135,1.682-1.285c0.412-0.089,1.219-0.133,1.961,0.487c3.118,2.599,7.401,7.438,10.093,15.732
	C108.85,63.223,108.227,69.656,107.228,73.595z M122.023,54.534c-0.774,1.527-2.099,2.661-3.727,3.189
	c-3.362,1.096-6.987-0.758-8.077-4.121c-1.093-3.363,0.755-6.992,4.114-8.084c0.656-0.214,1.321-0.314,1.976-0.314
	c2.702,0,5.222,1.729,6.099,4.437C122.938,51.271,122.802,53.007,122.023,54.534z"/>
<polygon fill="#333333" points="63.5,42.196 39.994,55.784 39.994,67.146 44.447,67.146 44.447,58.36 63.5,47.347 82.552,58.36 
	82.552,80.394 63.5,91.407 44.447,80.394 44.447,71.608 39.994,71.608 39.994,82.968 63.5,96.558 87.008,82.968 87.008,55.784 "/>
<polygon fill="#D53131" points="63.5,56.583 52.438,62.979 52.438,67.146 52.438,71.608 52.438,75.775 63.5,82.172 74.563,75.775 
	74.563,62.979 "/>
</svg>
