<?xml version="1.0" encoding="utf-8"?>
<!-- Generator: Adobe Illustrator 16.2.0, SVG Export Plug-In . SVG Version: 6.00 Build 0)  -->
<!DOCTYPE svg PUBLIC "-//W3C//DTD SVG 1.1//EN" "http://www.w3.org/Graphics/SVG/1.1/DTD/svg11.dtd">
<svg version="1.1" id="Слой_1" xmlns="http://www.w3.org/2000/svg" xmlns:xlink="http://www.w3.org/1999/xlink" x="0px" y="0px"
	 width="127px" height="127px" viewBox="0 0 127 127" enable-background="new 0 0 127 127" xml:space="preserve">
<g>
	<path fill="#FFFFFF" d="M125.008,79.168c0-4.358-3.383-8.135-7.74-8.343c-0.395,0-0.788,0.208-0.996,0.396l-7.74,5.559l-7.74-5.559
		c-0.208-0.208-0.602-0.396-0.995-0.396c-4.36,0.396-7.742,3.964-7.742,8.343v22.618h5.354v23.222h22.618v-23.2h4.961v-22.64
		H125.008z"/>
	<circle fill="#FFFFFF" cx="108.344" cy="59.536" r="6.952"/>
</g>
<path fill="#333333" d="M108.344,68.271c-4.959,0-8.924-3.963-8.924-8.922s3.965-8.924,8.924-8.924c4.961,0,8.924,3.965,8.924,8.924
	S113.305,68.271,108.344,68.271z M108.344,54.576c-2.781,0-4.959,2.18-4.959,4.961c0,2.779,2.178,4.958,4.959,4.958
	s4.961-2.179,4.961-4.958C113.305,56.756,111.125,54.576,108.344,54.576z"/>
<g>
	<path fill="#FFFFFF" d="M35.318,79.168c0-4.358-3.383-8.135-7.738-8.343c-0.396,0-0.791,0.208-0.997,0.396l-7.741,5.559
		l-7.738-5.559c-0.208-0.208-0.604-0.396-0.997-0.396c-4.358,0.396-7.741,3.964-7.741,8.343v22.618h5.355v23.222H30.34v-23.2h5.354
		V79.189h-0.375V79.168L35.318,79.168z"/>
	<circle fill="#FFFFFF" cx="18.656" cy="59.536" r="6.952"/>
</g>
<path fill="#333333" d="M18.656,68.271c-4.961,0-8.924-3.963-8.924-8.922s3.963-8.924,8.924-8.924c4.959,0,8.924,3.965,8.924,8.924
	S23.408,68.271,18.656,68.271z M18.656,54.576c-2.781,0-4.961,2.18-4.961,4.961c0,2.779,2.18,4.958,4.961,4.958
	s4.959-2.179,4.959-4.958C23.615,56.756,21.229,54.576,18.656,54.576z"/>
<path fill="#FFFFFF" d="M91.682,47.231c0-7.948-6.351-14.298-14.299-14.298H63.5H49.617c-7.948,0-14.299,6.35-14.299,14.298v38.308
	h8.924v39.489h38.494V85.518h8.923L91.682,47.231L91.682,47.231z"/>
<path fill="#D53131" d="M52.19,117.081v-39.49h-8.923V47.231c0-3.569,2.781-6.351,6.35-6.351h27.785c3.57,0,6.351,2.781,6.351,6.351
	v30.359h-8.922v39.49H52.19z"/>
<path fill="#333333" d="M117.268,68.854h-0.208c-0.788,0-1.577,0.394-2.178,0.788l-6.559,4.773l-6.556-4.773
	c-0.604-0.602-1.393-0.788-2.18-0.788H99.38c-2.18,0.208-4.17,0.995-5.748,2.179V47.231c0-8.924-7.346-16.269-16.269-16.269H49.617
	c-8.922,0-16.271,7.345-16.271,16.269v23.821c-1.597-1.182-3.569-2.178-5.747-2.178h-0.207c-0.789,0-1.599,0.395-2.179,0.789
	l-6.558,4.771l-6.558-4.771c-0.602-0.602-1.39-0.789-2.18-0.789H9.713C4.17,69.248,0,73.813,0,79.168v24.611h5.354V127h26.603
	v-23.221h5.355V87.51h4.959V127h42.458V87.51h4.96v16.27h5.353V127h26.585v-23.221H127V79.168
	C127,73.813,122.83,69.248,117.268,68.854z M33.328,99.815h-5.354v23.222h-7.345v-16.477h-3.967v16.477H9.317V99.815H3.963V79.189
	c0-3.383,2.573-6.143,5.748-6.351l8.924,6.558l8.924-6.558c3.174,0.394,5.748,3.175,5.748,6.351v20.626H33.328L33.328,99.815z
	 M89.688,83.545h-8.922v39.492H65.492V93.672h-3.965v29.365H46.254V83.545h-8.922V47.231c0-6.744,5.562-12.307,12.305-12.307h27.788
	c6.743,0,12.306,5.563,12.306,12.307v36.313H89.688L89.688,83.545z M123.037,99.815h-5.354v23.222h-7.345v-16.477h-3.965v16.477
	h-7.347V99.815h-5.354V79.189c0-3.383,2.573-6.143,5.748-6.351l8.924,6.558l8.924-6.558c3.175,0.394,5.748,3.175,5.748,6.351v20.626
	H123.037L123.037,99.815z"/>
<circle fill="#FFFFFF" cx="63.5" cy="13.696" r="11.704"/>
<g>
	<path fill="#333333" d="M63.5,27.393c-7.533,0-13.695-6.143-13.695-13.696S55.947,0,63.5,0s13.695,6.143,13.695,13.696
		S71.033,27.393,63.5,27.393z M63.5,3.963c-5.354,0-9.732,4.358-9.732,9.733c0,5.374,4.357,9.731,9.732,9.731
		s9.732-4.357,9.732-9.731C73.232,8.321,68.854,3.963,63.5,3.963z"/>
	<rect x="49.617" y="50.8" fill="#333333" width="3.964" height="3.963"/>
	<rect x="61.508" y="50.8" fill="#333333" width="3.965" height="3.963"/>
	<rect x="73.419" y="50.8" fill="#333333" width="3.964" height="3.963"/>
</g>
</svg>
