<?xml version="1.0" encoding="utf-8"?>
<!-- Generator: Adobe Illustrator 16.2.0, SVG Export Plug-In . SVG Version: 6.00 Build 0)  -->
<!DOCTYPE svg PUBLIC "-//W3C//DTD SVG 1.1//EN" "http://www.w3.org/Graphics/SVG/1.1/DTD/svg11.dtd">
<svg version="1.1" id="Слой_1" xmlns="http://www.w3.org/2000/svg" xmlns:xlink="http://www.w3.org/1999/xlink" x="0px" y="0px"
	 width="127px" height="127px" viewBox="0 0 127 127" enable-background="new 0 0 127 127" xml:space="preserve">
<g>
	<path fill="#D53131" d="M42.7,56.434H22.382V49.33c-5.039-3.352-8.126-9.021-8.126-15.065c0-10.001,8.202-18.137,18.285-18.137
		c10.084,0,18.286,8.136,18.286,18.137c0,6.046-3.087,11.714-8.127,15.065V56.434z"/>
	<g>
		<path fill="#333333" d="M44.732,63.487c0-0.636-0.132-1.236-0.348-1.795c1.424-0.893,2.379-2.459,2.379-4.251
			c0-2.779-2.278-5.038-5.079-5.038h-7.112V39.94c2.36-0.834,4.064-3.051,4.064-5.676c0-3.333-2.735-6.046-6.096-6.046
			s-6.096,2.713-6.096,6.046c0,2.625,1.705,4.842,4.063,5.676v12.463h-7.111c-2.801,0-5.078,2.259-5.078,5.038
			c0,1.792,0.955,3.358,2.379,4.251c-0.216,0.562-0.349,1.161-0.349,1.795c0,1.625,0.794,3.058,2.001,3.979v41.901L32.51,127
			l10.157-17.633V67.519C43.913,66.598,44.732,65.141,44.732,63.487z M32.541,32.249c1.122,0,2.031,0.904,2.031,2.016
			c0,1.113-0.909,2.016-2.031,2.016c-1.121,0-2.032-0.902-2.032-2.016C30.509,33.153,31.42,32.249,32.541,32.249z M38.605,106.815
			h-4.064V68.524h4.064V106.815z M26.414,106.815V68.524h4.063v38.291H26.414z M25.43,64.495c-0.559,0-1.017-0.454-1.017-1.008
			c0-0.555,0.458-1.008,1.017-1.008h14.223c0.56,0,1.016,0.453,1.016,1.008c0,0.554-0.456,1.008-1.016,1.008H25.43z M23.397,56.434
			h18.287c0.56,0,1.016,0.453,1.016,1.008c0,0.554-0.456,1.008-1.016,1.008h-2.032H25.43h-2.032c-0.558,0-1.016-0.454-1.016-1.008
			C22.382,56.887,22.838,56.434,23.397,56.434z M27.883,110.846h9.253l-4.626,8.027L27.883,110.846z"/>
		<path fill="#333333" d="M54.393,14.231c4.243,5.055,6.56,11.354,6.56,18.012c0,7.536-2.957,14.622-8.33,19.949l2.872,2.85
			c6.143-6.09,9.521-14.186,9.521-22.799c0-7.357-2.484-14.328-7.117-20.082l3.743-0.743l-0.799-3.952l-8.064,1.604l-4.773,7.888
			l3.485,2.073L54.393,14.231z"/>
		<path fill="#333333" d="M10.622,50.258C6.38,45.202,4.063,38.903,4.063,32.243c0-7.536,2.959-14.619,8.334-19.949
			c8.037-7.976,20.071-10.428,30.641-6.259l1.503-3.742C32.45-2.478,18.712,0.332,9.524,9.448C3.382,15.534,0,23.63,0,32.243
			c0,7.373,2.496,14.358,7.111,20.086l-3.735,0.737l0.797,3.953l8.068-1.6l4.771-7.891l-3.483-2.073L10.622,50.258z"/>
		<path fill="#333333" d="M113.192,53.452c0.856-5.511,0.713-11.002-0.425-16.332c-4.62-21.57-23.804-37.076-45.754-37.076
			c-0.197,0-0.394,0.002-0.591,0.004l0.05,4.03c20.274-0.257,38.059,13.992,42.315,33.881c1.083,5.056,1.177,10.28,0.281,15.527
			l-0.12,0.703l11.856,21.032l-13.156,2.982v24.58H87.332v18.139H44.665v4.03h46.73v-18.138h20.315v-25.4L127,77.95L113.192,53.452z
			"/>
	</g>
</g>
</svg>
