<?xml version="1.0" encoding="utf-8"?>
<!-- Generator: Adobe Illustrator 16.0.2, SVG Export Plug-In . SVG Version: 6.00 Build 0)  -->
<!DOCTYPE svg PUBLIC "-//W3C//DTD SVG 1.1//EN" "http://www.w3.org/Graphics/SVG/1.1/DTD/svg11.dtd">
<svg version="1.1" id="Слой_1" xmlns="http://www.w3.org/2000/svg" xmlns:xlink="http://www.w3.org/1999/xlink" x="0px" y="0px"
	 width="120px" height="120px" viewBox="0 0 120 120" enable-background="new 0 0 120 120" xml:space="preserve">
<g>
	<path fill="#1E2223" d="M108.123,97.188c-0.929-1.727-0.929-3.977-0.79-6.149l0.061-0.872c0.161-2.288,0.328-4.653-0.333-7.033
		c-0.202-0.729-0.495-1.436-0.869-2.105c-0.465-0.824-1.037-1.55-1.684-2.15c0.616-2.259,0.679-4.636,0.117-6.891
		c-0.797-3.207-2.818-6.02-5.487-7.926c6.118-3.085,10.439-10.446,10.439-19.027c0-11.042-7.161-20.058-16.103-20.533
		c-2.489-7.917-8.655-13.142-15.702-13.142c-0.602,0-1.196,0.054-1.785,0.127C73.15,4.553,67.351,0.135,60.935,0.135
		S48.721,4.553,45.883,11.486c-0.587-0.074-1.182-0.127-1.785-0.127c-7.044,0-13.211,5.226-15.701,13.142
		c-8.943,0.477-16.102,9.49-16.102,20.533c0,9.922,5.775,18.227,13.431,20.154c0.579,2.298,0.862,5.395,0.99,6.814
		c0.471,5.164-0.59,9.938-2.894,13.431c-0.532-1.858-1.635-4.388-4.273-5.139c-1.354-0.388-2.856-0.119-4.117,0.734
		c-1.394,0.941-2.327,2.459-2.493,4.06c-0.272,2.618,1.271,5.33,3.841,6.751c1.571,0.866,3.229,1.098,4.669,0.652
		c0.048-0.016,0.091-0.029,0.139-0.045l0.46,2.063c0.485,2.16,1.147,5.121,3.239,7.174c1.216,1.196,2.97,1.897,4.684,1.897
		c0.174,0,0.348-0.009,0.522-0.022c1.548-0.134,2.868-0.853,3.709-2.023l-3.039-2.184c-0.199,0.278-0.534,0.438-0.991,0.479
		c-0.78,0.074-1.699-0.261-2.266-0.817c-1.209-1.185-1.694-3.032-2.208-5.322l-0.81-3.623c4.155-4.308,6.219-11.07,5.552-18.404
		c-0.104-1.142-0.235-2.343-0.392-3.529l23.992,32.461c-1.845-0.761-3.789-1.307-5.578-1.307c-5.379,0-8.107,2.518-8.107,7.484
		c0,4.965,2.729,7.482,8.107,7.482c2.031,0,4.258-0.703,6.316-1.624l-2.886,4.328l3.113,2.074l4.057-6.082v6.916h3.741v-6.916
		l4.057,6.084l3.113-2.074l-2.886-4.329c2.06,0.92,4.287,1.623,6.316,1.623c5.381,0,8.108-2.518,8.108-7.482
		c0-4.967-2.728-7.484-8.108-7.484c-1.789,0-3.73,0.546-5.578,1.305l25.9-35.041c0.082-0.005,0.166-0.007,0.248-0.015l-0.023,0.081
		c3.367,0.956,6.195,3.877,7.041,7.273c0.34,1.372,0.361,2.811,0.092,4.212c-1.663-0.285-3.47,0.259-4.729,1.426
		c-1.109,1.022-1.774,2.472-1.824,3.979c-0.027,0.823,0.132,1.569,0.468,2.21c0.475,0.904,1.285,1.543,2.224,1.761
		c1.282,0.289,2.702-0.229,3.805-1.399c0.688-0.733,1.294-1.526,1.81-2.366c0.03,0.049,0.059,0.1,0.087,0.149
		c0.229,0.406,0.405,0.836,0.528,1.275c0.488,1.758,0.351,3.706,0.204,5.768l-0.062,0.896c-0.174,2.728-0.147,5.604,1.231,8.162
		c1.593,2.954,4.845,4.807,8.16,4.807c0.577,0,1.152-0.056,1.723-0.173l-0.74-3.666C111.729,100.384,109.211,99.205,108.123,97.188z
		 M20.348,88.916c-0.447,0.138-1.105,0.007-1.758-0.354c-1.233-0.681-2.043-1.979-1.927-3.085c0.053-0.499,0.391-1.027,0.867-1.349
		c0.161-0.11,0.449-0.268,0.761-0.268c0.077,0,0.155,0.009,0.236,0.033c1.102,0.314,1.658,2.26,1.979,3.699l0.252,1.128
		C20.62,88.805,20.479,88.875,20.348,88.916z M44.098,39.421c3.77,0,7.269,2.065,9.763,5.672
		c-5.755,3.277-9.763,10.393-9.763,18.647c0,3.304,0.656,6.416,1.791,9.184c-0.591,0.106-1.188,0.171-1.791,0.171
		c-7.221,0-13.095-7.554-13.095-16.837S36.877,39.421,44.098,39.421z M60.935,28.196c4.75,0,9.085,3.361,11.395,8.637
		c-3.082,1.291-5.824,3.624-7.847,6.8c-1.146-0.303-2.329-0.47-3.548-0.47c-1.222,0-2.407,0.169-3.556,0.472
		c-2.026-3.18-4.761-5.532-7.831-6.818C51.859,31.549,56.191,28.196,60.935,28.196z M77.772,39.421
		c7.222,0,13.097,7.554,13.097,16.837s-5.875,16.837-13.097,16.837c-0.602,0-1.198-0.064-1.792-0.171
		c1.138-2.768,1.792-5.88,1.792-9.184c0-8.25-4.003-15.365-9.752-18.643C70.486,41.555,74.03,39.421,77.772,39.421z M60.935,46.905
		c7.222,0,13.096,7.555,13.096,16.836c0,9.283-5.874,16.837-13.096,16.837c-7.221,0-13.095-7.554-13.095-16.837
		C47.84,54.46,53.714,46.905,60.935,46.905z M59.064,84.187v13.128l-6.472-15.721C54.542,82.96,56.729,83.868,59.064,84.187z
		 M62.806,84.187c2.339-0.318,4.524-1.227,6.474-2.594l-6.474,15.722V84.187z M44.098,76.838c0.805,0,1.606-0.085,2.397-0.223
		l6.946,16.868L40.846,76.444C41.9,76.698,42.985,76.838,44.098,76.838z M75.377,76.615c0.792,0.138,1.59,0.223,2.396,0.223
		c1.114,0,2.199-0.14,3.253-0.394L68.431,93.483L75.377,76.615z M105.835,45.033c0,8.748-5.217,15.955-11.86,16.758
		c0.403-1.764,0.636-3.615,0.636-5.532c0-9.737-5.569-17.898-13.015-20.023c2.368-4.939,6.57-8.04,11.144-8.04
		C99.961,28.196,105.835,35.752,105.835,45.033z M89.628,24.819c-5.1,1.164-9.51,5.14-11.894,10.865
		c-0.587,0.002-1.165,0.068-1.74,0.142c-2.104-5.152-5.841-8.918-10.253-10.518c2.053-6.163,6.743-10.208,12.031-10.208
		C82.92,15.101,87.496,18.934,89.628,24.819z M60.935,3.876c4.734,0,9.057,3.337,11.375,8.583c-4.65,1.925-8.423,6.27-10.24,12.048
		c-0.376-0.032-0.753-0.053-1.134-0.053c-0.381,0-0.757,0.021-1.133,0.051c-1.815-5.779-5.59-10.121-10.236-12.046
		C51.877,7.213,56.203,3.876,60.935,3.876z M44.098,15.101c5.29,0,9.98,4.044,12.032,10.208c-4.41,1.598-8.143,5.356-10.249,10.501
		c-0.577-0.078-1.159-0.125-1.745-0.127c-2.382-5.725-6.795-9.699-11.894-10.864C34.376,18.934,38.952,15.101,44.098,15.101z
		 M16.037,45.033c0-9.281,5.874-16.837,13.095-16.837c4.572,0,8.775,3.101,11.142,8.04C32.831,38.361,27.26,46.521,27.26,56.259
		c0,1.917,0.233,3.768,0.637,5.532C21.254,60.988,16.037,53.781,16.037,45.033z M44.098,106.771c0-2.19,0.313-3.742,4.366-3.742
		c2.747,0,6.615,2.077,9.2,3.742c-2.581,1.665-6.443,3.74-9.2,3.74C44.41,110.512,44.098,108.962,44.098,106.771z M77.772,106.771
		c0,2.19-0.313,3.74-4.366,3.74c-2.748,0-6.614-2.075-9.2-3.74c2.582-1.665,6.442-3.742,9.2-3.742
		C77.459,103.029,77.772,104.581,77.772,106.771z M98.304,82.517c-0.007,0.008-0.016,0.019-0.027,0.028
		c0.041-0.476,0.267-0.943,0.617-1.268c0.196-0.182,0.434-0.319,0.688-0.406C99.211,81.452,98.785,82.003,98.304,82.517z"/>
	<path fill="#1E2223" d="M100.372,19.311c-0.477-0.781,0.097-2.135,0.981-3.241c0.421,1.01,1.103,1.889,2.013,2.505
		c1.367,0.928,3.23,1.089,4.86,0.423c1.51-0.618,2.544-1.815,2.842-3.286c0.273-1.351-0.096-2.728-1.037-3.875
		c-0.702-0.854-1.666-1.5-2.712-1.849c0.293-0.151,0.606-0.287,0.938-0.404c1.206-0.434,2.428-0.589,3.535-0.462l0.447-3.713
		c-1.683-0.202-3.5,0.022-5.253,0.655c-2.643,0.954-4.616,2.659-5.557,4.802c-0.029,0.066-0.057,0.131-0.081,0.199
		c-0.785,0.512-1.556,1.172-2.312,1.973c-2.023,2.138-3.571,5.426-1.855,8.228L100.372,19.311z M105.569,13.439L105.569,13.439
		c0.553,0,1.195,0.316,1.568,0.771c0.151,0.185,0.321,0.47,0.264,0.762c-0.065,0.324-0.468,0.512-0.591,0.563
		c-0.465,0.19-1.018,0.169-1.346-0.057c-0.539-0.365-0.845-1.098-0.854-1.878C104.926,13.5,105.247,13.442,105.569,13.439z"/>
	<path fill="#1E2223" d="M13.932,13.422c1.32,1.604,2.121,4.055,1.182,5.909c-0.093,0.184-0.144,0.24-0.149,0.243
		c0,0,0.016-0.016,0.049-0.037l1.991,3.167c0.587-0.368,1.06-0.919,1.446-1.686c1.854-3.665,0.328-7.867-2.007-10.406
		c-0.677-0.736-1.403-1.341-2.163-1.807c-0.386-2.172-1.502-4.258-3.212-5.833C8.99,1.062,5.721,0.135,1.07,0.135v3.741
		c3.618,0,6.128,0.621,7.462,1.851C9.155,6.3,9.657,6.987,10.019,7.728c-2.011,0.198-3.825,1.402-4.577,3.141
		c-0.556,1.29-0.454,2.825,0.275,4.11c0.667,1.181,1.768,1.954,3.021,2.123C11.165,17.428,13.124,15.553,13.932,13.422z
		 M10.533,11.782c-0.233,0.929-0.932,1.652-1.298,1.609c-0.062-0.008-0.169-0.092-0.263-0.257c-0.143-0.25-0.182-0.58-0.093-0.783
		c0.228-0.533,0.969-0.91,1.722-0.91h0.003C10.584,11.553,10.561,11.67,10.533,11.782z"/>
	<rect x="4.812" y="31.938" fill="#1E2223" width="3.741" height="3.742"/>
	<rect x="27.26" y="7.617" fill="#1E2223" width="3.743" height="3.741"/>
	<rect x="14.165" y="67.483" fill="#1E2223" width="3.743" height="3.741"/>
	<rect x="1.07" y="65.613" fill="#1E2223" width="3.741" height="3.74"/>
	<rect x="87.127" y="5.747" fill="#1E2223" width="3.742" height="3.741"/>
	<rect x="109.577" y="26.325" fill="#1E2223" width="3.741" height="3.742"/>
	<rect x="83.386" y="86.191" fill="#1E2223" width="3.741" height="3.742"/>
	<rect x="90.869" y="91.805" fill="#1E2223" width="3.741" height="3.74"/>
	<rect x="83.386" y="95.545" fill="#1E2223" width="3.741" height="3.742"/>
	<rect x="12.295" y="99.287" fill="#1E2223" width="3.742" height="3.742"/>
	<rect x="4.812" y="103.029" fill="#1E2223" width="3.741" height="3.742"/>
	<rect x="4.812" y="80.578" fill="#1E2223" width="3.741" height="3.742"/>
	<rect x="109.577" y="67.483" fill="#1E2223" width="3.741" height="3.741"/>
	<rect x="62.806" y="69.354" fill="#1E2223" width="3.742" height="3.742"/>
	<rect x="66.548" y="61.87" fill="#1E2223" width="3.741" height="3.743"/>
	<rect x="115.189" y="54.388" fill="#1E2223" width="3.741" height="3.741"/>
	<rect x="92.739" y="104.899" fill="#1E2223" width="3.741" height="3.742"/>
	<rect x="100.223" y="104.899" fill="#1E2223" width="3.741" height="3.742"/>
	<rect x="85.256" y="104.899" fill="#1E2223" width="3.741" height="3.742"/>
</g>
<g>
	<path fill="#CA4C44" d="M65.741,25.308c-2.739-0.81-4.425-0.854-4.806-0.854c-0.381,0-3.253,0.258-4.806,0.854
		c-4.41,1.598-8.143,5.356-10.249,10.501c-0.032-0.004-0.064-0.008-0.098-0.012c1.377,0.293,2.712,0.706,3.998,1.222
		c0.061-0.008,0.122-0.014,0.183-0.022c-0.139-0.063-0.276-0.124-0.416-0.181c2.311-5.268,6.643-8.621,11.387-8.621
		c4.75,0,9.085,3.361,11.395,8.637c-0.014,0.005-0.025,0.01-0.039,0.016c0.058,0.013,0.115,0.025,0.172,0.038
		c1.142-0.438,2.318-0.799,3.53-1.063C73.888,30.671,70.152,26.907,65.741,25.308z"/>
</g>
</svg>
