<?xml version="1.0" encoding="utf-8"?>
<!-- Generator: Adobe Illustrator 16.0.2, SVG Export Plug-In . SVG Version: 6.00 Build 0)  -->
<!DOCTYPE svg PUBLIC "-//W3C//DTD SVG 1.1//EN" "http://www.w3.org/Graphics/SVG/1.1/DTD/svg11.dtd">
<svg version="1.1" id="Слой_1" xmlns="http://www.w3.org/2000/svg" xmlns:xlink="http://www.w3.org/1999/xlink" x="0px" y="0px"
	 width="120px" height="120px" viewBox="0 0 120 120" enable-background="new 0 0 120 120" xml:space="preserve">
<path fill="#CA4C44" d="M119.331,104.136l-4.724-16.418c-0.113-0.337-0.338-0.675-0.563-0.899
	c-2.925-8.884-10.121-15.742-19.229-18.103l-1.35-0.225c-2.022-0.563-4.272,0.112-5.734,1.797
	c-4.947,5.624-11.243,6.074-17.879,6.074c-6.633,0-12.931-0.45-17.878-6.074c-1.462-1.685-3.711-2.359-5.735-1.797l-1.349,0.337
	c-6.86,1.798-12.708,6.185-16.417,12.031H14.305c-0.112,0-0.112,0-0.225-0.113c0-0.112-0.113-0.225-0.113-0.449l2.924-10.458
	c2.587-8.209,7.534-10.682,17.205-13.156c0.45-0.113,0.787-0.337,1.012-0.563c0.787,0.675,1.687,1.237,2.587,1.687
	c0.336,0.225,0.674,0.225,1.011,0.225c0.787,0,1.574-0.45,2.023-1.237c0.563-1.125,0.113-2.474-1.012-3.037
	c-5.172-2.698-8.882-10.344-8.882-18.215c0-6.973,5.735-12.708,12.707-12.708c1.35,0,2.586,0.225,3.822,0.563
	c-1.236,3.037-1.91,6.298-1.91,9.783c0,19.229,11.581,35.422,25.301,35.422c13.491,0,25.411-16.531,25.411-35.422
	c0-14.055-11.355-25.413-25.411-25.413c-8.884,0-16.756,4.611-21.254,11.583c-1.912-0.675-3.935-1.012-5.959-1.012
	c-6.073,0-11.469,3.261-14.505,8.096c-0.226-0.225-0.45-0.338-0.675-0.45c-1.687-0.9-3.374-1.237-5.285-1.237
	c-6.297-0.112-11.357,4.948-11.357,11.246c0,3.597,1.012,6.971,2.586,9.67c-5.173,1.349-9.783,3.373-11.919,10.232l-1.799,6.521
	c-0.337,1.125-0.113,2.362,0.562,3.262c0.675,1.013,1.912,1.575,3.149,1.575h8.659c-0.114,0.449-0.337,0.899-0.45,1.35L9.582,79.172
	c-0.45,1.462-0.112,3.037,0.9,4.274c0.9,1.237,2.25,1.912,3.823,1.912h11.919c-0.337,0.787-0.563,1.574-0.788,2.359l-4.723,16.53
	c-0.449,1.912-0.112,3.937,1.125,5.511c1.237,1.573,3.036,2.473,4.948,2.473h67.467h3.824h15.18c1.912,0,3.822-0.899,4.947-2.473
	C119.441,108.185,119.892,106.16,119.331,104.136z M52.2,23.736c0.111-0.112,0.224-0.225,0.337-0.45
	c0.112-0.112,0.112-0.337,0.225-0.45c3.485-6.296,10.231-10.568,17.992-10.568c9.331,0,17.202,6.184,19.902,14.618
	c-3.937,0.787-8.097-0.788-10.571-4.161c-0.787-1.011-2.137-1.237-3.149-0.451c-0.447,0.337-0.673,0.675-0.785,1.125
	c-0.112,0.113-0.112,0.225-0.225,0.337c-3.149,6.409-13.72,9.108-25.751,6.748C50.513,28.123,51.188,25.873,52.2,23.736z
	 M58.496,35.769c8.996,0,16.417-2.812,20.239-8.096c2.813,2.473,6.297,3.822,10.009,3.822c0.899,0,1.912-0.112,2.812-0.336
	c0.112,0.674,0.112,1.236,0.112,1.911c0,16.53-9.783,31.035-20.914,31.035c-10.683,0-20.017-13.381-20.804-29.123
	C52.875,35.544,55.798,35.769,58.496,35.769z M5.196,62.755l1.575-5.622c1.349-4.609,4.161-5.959,9.782-7.309
	c0.337-0.113,0.675-0.225,0.9-0.45c0.562,0.45,1.012,0.788,1.687,1.125c0.337,0.225,0.675,0.225,1.012,0.225
	c0.786,0,1.574-0.45,2.023-1.237c0.563-1.125,0.113-2.475-0.899-3.036c-2.924-1.575-5.061-5.96-5.061-10.457
	c0-3.824,3.037-6.86,6.86-6.86c1.236,0,2.249,0.226,3.261,0.787c0.337,0.113,0.563,0.224,0.9,0.224
	c-0.563,1.687-0.9,3.487-0.9,5.399c0,6.409,2.137,12.706,5.509,17.092c-6.747,1.686-12.706,3.935-16.642,10.119H5.196z
	 M114.72,107.06c-0.226,0.225-0.675,0.675-1.463,0.675h-15.18h-3.824H26.786c-0.787,0-1.237-0.45-1.462-0.675
	c-0.337-0.45-0.45-1.125-0.337-1.574l4.723-16.418c2.249-7.759,8.434-13.83,16.305-15.854l1.349-0.338
	c0.337-0.112,0.9,0.113,1.237,0.45c6.184,7.084,13.832,7.646,21.252,7.646c7.423,0,15.069-0.563,21.253-7.646
	c0.338-0.337,0.788-0.563,1.348-0.45l1.352,0.338c7.759,2.024,14.056,8.096,16.304,15.854l2.024,6.972
	c0.112,0.338,0.225,0.563,0.449,0.787l2.475,8.546C115.169,105.935,115.057,106.609,114.72,107.06z"/>
<g>
	<g>
		<path fill="#1E2223" d="M70.754,7.769c-8.884,0-16.756,4.611-21.254,11.583c0,0-1.516,2.659-2.137,4.047
			c-1.236,3.037-1.91,6.298-1.91,9.783c0,19.229,11.581,35.422,25.301,35.422c13.491,0,25.411-16.531,25.411-35.422
			C96.165,19.126,84.81,7.769,70.754,7.769z M52.2,23.736c0.111-0.112,0.224-0.225,0.337-0.45c0.112-0.112,0.112-0.337,0.225-0.45
			c3.485-6.296,10.231-10.568,17.992-10.568c9.331,0,17.202,6.184,19.902,14.618c-3.937,0.787-8.097-0.788-10.571-4.161
			c-0.787-1.011-2.137-1.237-3.149-0.451c-0.447,0.337-0.673,0.675-0.785,1.125c-0.112,0.113-0.112,0.225-0.225,0.337
			c-3.149,6.409-13.72,9.108-25.751,6.748C50.513,28.123,51.188,25.873,52.2,23.736z M70.754,64.104
			c-10.683,0-20.017-13.381-20.804-29.123c2.924,0.563,5.848,0.787,8.546,0.787c8.996,0,16.417-2.812,20.239-8.096
			c2.813,2.473,6.297,3.822,10.009,3.822c0.899,0,1.912-0.112,2.812-0.336c0.112,0.674,0.112,1.236,0.112,1.911
			C91.668,49.599,81.885,64.104,70.754,64.104z"/>
		<path fill="#1E2223" d="M28.136,28.415c0.217-0.711,0.553-1.375,0.989-1.965c-0.014-0.031-0.025-0.061-0.038-0.094
			c-0.017,0.027-0.036,0.052-0.052,0.08c-0.226-0.225-0.45-0.338-0.675-0.45c-1.687-0.9-3.374-1.237-5.285-1.237
			c-6.297-0.112-11.357,4.948-11.357,11.246c0,3.597,1.012,6.971,2.586,9.67c-5.173,1.349-9.783,3.373-11.919,10.232l-1.799,6.521
			c-0.337,1.125-0.113,2.362,0.562,3.262c0.675,1.013,1.912,1.575,3.149,1.575h8.659c-0.066,0.26-0.167,0.52-0.264,0.779
			c0.023-0.016,0.048-0.029,0.073-0.045c0.183-0.692,0.478-1.344,0.866-1.93c0.12-0.252,0.257-0.494,0.407-0.729
			c0.138-0.328,0.302-0.644,0.491-0.944c0.214-0.619,0.519-1.196,0.898-1.719c0.022-0.126,0.05-0.252,0.08-0.374
			c-0.102,0.151-0.203,0.305-0.303,0.462H5.196l1.575-5.622c1.349-4.609,4.161-5.959,9.782-7.309c0.337-0.113,0.675-0.225,0.9-0.45
			c0.562,0.45,1.012,0.788,1.687,1.125c0.337,0.225,0.675,0.225,1.012,0.225c0.786,0,1.574-0.45,2.023-1.237
			c0.563-1.125,0.113-2.475-0.899-3.036c-2.924-1.575-5.061-5.96-5.061-10.457c0-3.824,3.037-6.86,6.86-6.86
			c1.236,0,2.249,0.226,3.261,0.787c0.337,0.113,0.563,0.224,0.9,0.224c-0.016,0.046-0.029,0.094-0.045,0.142
			c0.031-0.006,0.063-0.012,0.093-0.018c0.148-0.42,0.34-0.82,0.568-1.197C27.934,28.848,28.03,28.628,28.136,28.415z"/>
		<path fill="#1E2223" d="M119.331,104.136l-4.724-16.418c-0.113-0.337-0.338-0.675-0.563-0.899
			c-2.925-8.884-10.121-15.742-19.229-18.103l-1.35-0.225c-2.022-0.563-4.272,0.112-5.734,1.797
			c-4.947,5.624-11.243,6.074-17.879,6.074c-6.633,0-12.931-0.45-17.878-6.074c-1.462-1.685-3.711-2.359-5.735-1.797l-1.349,0.337
			c-6.86,1.798-12.708,6.185-16.417,12.031l-2.25,4.499c-0.337,0.787-0.563,1.574-0.788,2.359l-4.723,16.53
			c-0.449,1.912-0.112,3.937,1.125,5.511c1.237,1.573,3.036,2.473,4.948,2.473h86.471c1.912,0,3.822-0.899,4.947-2.473
			C119.441,108.185,119.892,106.16,119.331,104.136z M114.72,107.06c-0.226,0.225-0.675,0.675-1.463,0.675H26.786
			c-0.787,0-1.237-0.45-1.462-0.675c-0.337-0.45-0.45-1.125-0.337-1.574l4.723-16.418c2.249-7.759,8.434-13.83,16.305-15.854
			l1.349-0.338c0.337-0.112,0.9,0.113,1.237,0.45c6.184,7.084,13.832,7.646,21.252,7.646c7.423,0,15.069-0.563,21.253-7.646
			c0.338-0.337,0.788-0.563,1.348-0.45l1.352,0.338c7.759,2.024,14.056,8.096,16.304,15.854l2.024,6.972
			c0.112,0.338,0.225,0.563,0.449,0.787l2.475,8.546C115.169,105.935,115.057,106.609,114.72,107.06z"/>
	</g>
</g>
</svg>
