<?xml version="1.0" encoding="utf-8"?>
<!-- Generator: Adobe Illustrator 16.0.2, SVG Export Plug-In . SVG Version: 6.00 Build 0)  -->
<!DOCTYPE svg PUBLIC "-//W3C//DTD SVG 1.1//EN" "http://www.w3.org/Graphics/SVG/1.1/DTD/svg11.dtd">
<svg version="1.1" id="Слой_1" xmlns="http://www.w3.org/2000/svg" xmlns:xlink="http://www.w3.org/1999/xlink" x="0px" y="0px"
	 width="120px" height="120px" viewBox="0 0 120 120" enable-background="new 0 0 120 120" xml:space="preserve">
<path fill="#1E2223" d="M27.581,62.875c-1.955,0-3.791,1.041-4.792,2.712l-2.884,4.809l-0.154-0.307v-5.916l6.231-2.493
	c2.035-0.813,3.352-2.754,3.352-4.947c0-1.714-0.832-3.33-2.219-4.33c-1.392-0.999-3.189-1.267-4.811-0.72l-0.678,0.228l0.774-1.548
	c0.774-1.551,1.185-3.285,1.185-5.016c0-3.017-2.454-5.47-5.47-5.47c-2.085,0-3.958,1.158-4.893,3.024l-4.767,9.535L4.457,72.083
	L4.418,97.375l1.504,7.666H0.585v13.416h28.75v-13.416h-5.75V92.206l3.511-5.268l5.221-13.776c0.565-1.509,0.851-3.09,0.851-4.7
	C33.168,65.382,30.661,62.875,27.581,62.875z M23.529,55.314c0.46-0.153,0.952-0.081,1.35,0.203
	c0.396,0.284,0.623,0.727,0.623,1.215c0,0.615-0.368,1.158-0.939,1.387l-4.812,1.924v-3.459L23.529,55.314z M25.501,108.875v5.75
	H4.418v-5.75H25.501z M28.727,71.814l-4.94,13.181l-4.036,6.049v13.997H9.823l-1.571-7.856V72.648l3.745-18.728l4.654-9.304
	c0.278-0.561,0.839-0.908,1.464-0.908c0.9,0,1.636,0.736,1.636,1.637c0,1.138-0.27,2.281-0.779,3.304l-3.054,6.107v16.238l3.68,7.36
	l6.478-10.796c0.314-0.525,0.891-0.851,1.505-0.851c0.968,0,1.753,0.785,1.753,1.753C29.334,69.611,29.132,70.741,28.727,71.814z"/>
<path fill="#1E2223" d="M114.088,105.041l1.459-7.291l0.036-25.291l-3.872-19.542L106.779,42.9
	c-0.934-1.867-2.808-3.024-4.893-3.024c-3.018,0-5.471,2.453-5.471,5.47c0,1.728,0.411,3.465,1.185,5.018l0.772,1.544l-0.676-0.228
	c-1.62-0.548-3.42-0.278-4.812,0.72c-1.388,1.002-2.22,2.618-2.22,4.332c0,2.194,1.317,4.134,3.352,4.947l6.232,2.493v5.916
	l-0.154,0.307l-2.884-4.807c-1.001-1.673-2.837-2.714-4.791-2.714c-3.08,0-5.588,2.507-5.588,5.587c0,1.61,0.286,3.191,0.852,4.7
	l5.02,13.386l3.712,5.658v12.835h-5.75v13.416h28.749v-13.416H114.088z M95.438,58.12c-0.569-0.229-0.938-0.772-0.938-1.387
	c0-0.489,0.227-0.93,0.623-1.215c0.397-0.286,0.886-0.358,1.35-0.203l3.778,1.271v3.459L95.438,58.12z M96.218,84.995l-4.942-13.181
	c-0.406-1.073-0.609-2.203-0.609-3.353c0-0.968,0.786-1.753,1.755-1.753c0.612,0,1.189,0.325,1.503,0.851l6.479,10.795l3.68-7.36
	v-16.24l-3.053-6.104c-0.511-1.021-0.78-2.166-0.78-3.304c0-0.901,0.736-1.637,1.637-1.637c0.622,0,1.185,0.347,1.463,0.906
	l4.655,9.303l3.745,18.729v24.538l-1.573,7.854h-9.927V91.044L96.218,84.995z M115.583,114.625H94.499v-5.75h21.084V114.625z"/>
<path fill="#CA4C44" d="M84.225,36.042h4.526v-11.5h-4.526c-0.611-2.599-1.625-5.05-3.025-7.314l3.196-3.199l-8.13-8.13
	l-3.201,3.195C70.799,7.694,68.35,6.68,65.75,6.068V1.543H54.251v4.525c-2.6,0.611-5.05,1.625-7.314,3.027l-3.198-3.197l-8.131,8.13
	l3.197,3.199c-1.402,2.266-2.415,4.715-3.026,7.313h-4.527v11.5h4.525c0.611,2.599,1.625,5.05,3.026,7.314l-3.197,3.198l8.13,8.13
	l2.937-2.936c-0.024,0.193-0.06,0.383-0.06,0.583c0,1.706,0.901,3.193,2.245,4.044c-0.203,0.532-0.328,1.104-0.328,1.706
	c0,2.643,2.148,4.792,4.792,4.792h13.417c2.643,0,4.79-2.149,4.79-4.792c0-0.604-0.124-1.175-0.327-1.706
	c1.344-0.85,2.245-2.338,2.245-4.044c0-0.176-0.034-0.345-0.053-0.516l2.87,2.869l8.129-8.13l-3.196-3.198
	C82.6,41.093,83.611,38.641,84.225,36.042z M66.739,59.042H53.323c-0.527,0-0.958-0.431-0.958-0.958
	c0-0.527,0.431-0.958,0.958-0.958h13.417c0.527,0,0.958,0.431,0.958,0.958C67.697,58.611,67.267,59.042,66.739,59.042z
	 M68.655,53.292h-1.916H53.323h-1.917c-0.527,0-0.958-0.431-0.958-0.958c0-0.528,0.431-0.959,0.958-0.959h17.249
	c0.527,0,0.959,0.431,0.959,0.959C69.614,52.861,69.183,53.292,68.655,53.292z M61.947,35.69c2.226-0.793,3.834-2.902,3.834-5.397
	c0-3.17-2.58-5.75-5.75-5.75s-5.75,2.58-5.75,5.75c0,2.496,1.608,4.604,3.833,5.397v11.853h-3.833v-5.088L53.325,41.9
	c-4.138-2.397-6.709-6.844-6.709-11.607c0-7.396,6.02-13.416,13.416-13.416s13.416,6.02,13.416,13.416
	c0,4.761-2.572,9.21-6.709,11.607l-0.957,0.554v5.088h-3.834V35.69z M60.031,32.209c-1.058,0-1.917-0.858-1.917-1.917
	c0-1.058,0.858-1.916,1.917-1.916c1.059,0,1.916,0.858,1.916,1.916C61.947,31.351,61.09,32.209,60.031,32.209z M80.766,33.808
	c-0.531,3.163-1.74,6.085-3.593,8.684l-0.938,1.319l2.74,2.744l-2.709,2.71l-2.745-2.745l-1.321,0.941
	c-0.35,0.249-0.733,0.498-1.144,0.746c-0.443-0.259-0.922-0.466-1.441-0.571v-3.02c4.755-3.187,7.667-8.578,7.667-14.328
	c0-9.512-7.737-17.25-17.25-17.25c-9.512,0-17.25,7.737-17.25,17.25c0,5.748,2.911,11.14,7.666,14.327v3.021
	c-0.53,0.107-1.019,0.32-1.471,0.588c-0.418-0.253-0.813-0.506-1.173-0.763l-1.321-0.941l-2.744,2.745l-2.71-2.71l2.741-2.744
	l-0.939-1.319c-1.851-2.599-3.061-5.521-3.592-8.684l-0.272-1.599h-3.881v-3.833h3.881l0.271-1.599
	c0.531-3.162,1.74-6.085,3.591-8.685l0.939-1.319l-2.74-2.744l2.709-2.71l2.745,2.741l1.319-0.938
	c2.599-1.852,5.522-3.061,8.684-3.592l1.601-0.271V5.377h3.833v3.881l1.6,0.27c3.162,0.531,6.084,1.74,8.683,3.592l1.318,0.938
	l2.746-2.74l2.71,2.709l-2.742,2.745l0.94,1.319c1.852,2.599,3.061,5.522,3.591,8.685l0.272,1.601h3.881v3.833h-3.881L80.766,33.808
	z"/>
<rect x="58.084" y="66.709" fill="#1E2223" width="3.833" height="3.833"/>
<rect x="58.084" y="74.374" fill="#1E2223" width="3.833" height="3.835"/>
<rect x="58.084" y="82.041" fill="#1E2223" width="3.833" height="3.835"/>
<rect x="58.084" y="89.708" fill="#1E2223" width="3.833" height="3.833"/>
</svg>
