<?xml version="1.0" encoding="utf-8"?>
<!-- Generator: Adobe Illustrator 16.0.2, SVG Export Plug-In . SVG Version: 6.00 Build 0)  -->
<!DOCTYPE svg PUBLIC "-//W3C//DTD SVG 1.1//EN" "http://www.w3.org/Graphics/SVG/1.1/DTD/svg11.dtd">
<svg version="1.1" id="Слой_1" xmlns="http://www.w3.org/2000/svg" xmlns:xlink="http://www.w3.org/1999/xlink" x="0px" y="0px"
	 width="120px" height="120px" viewBox="0 0 120 120" enable-background="new 0 0 120 120" xml:space="preserve">
<path fill="#CA4C44" d="M104.338,11.806v42.411h15.422V11.806H104.338z M115.904,50.361h-7.711V15.662h7.711V50.361z"/>
<path fill="#CA4C44" d="M85.061,31.308c-1.234-1.103-2.521-2.136-3.855-3.094v-0.985h-1.452c-7.512-4.97-16.394-7.711-25.537-7.711
	h-1.927v48.194h48.193v-1.928c0-3.917-0.518-7.792-1.491-11.566h1.491v-34.7H85.061V31.308z M56.144,63.855v-40.44
	c5.456,0.25,10.77,1.574,15.67,3.813h-6.032v26.988h15.423V33.141c1.349,1.115,2.644,2.296,3.855,3.58v17.497H95
	c0.891,3.145,1.436,6.371,1.584,9.639H56.144z M77.349,31.083v19.278h-7.71V31.083H77.349z M88.915,23.372h7.712v26.989h-7.712
	V23.372z"/>
<rect x="13.232" y="66.264" transform="matrix(-0.7071 0.7071 -0.7071 -0.7071 90.5831 98.8654)" fill="#1E2223" width="23.171" height="3.856"/>
<path fill="#1E2223" d="M23.373,60c0-3.188-2.594-5.783-5.784-5.783c-3.189,0-5.783,2.595-5.783,5.783
	c0,3.188,2.594,5.783,5.783,5.783C20.778,65.783,23.373,63.188,23.373,60z M15.662,60c0-1.065,0.863-1.928,1.927-1.928
	c1.064,0,1.927,0.863,1.927,1.928c0,1.064-0.863,1.928-1.927,1.928C16.525,61.928,15.662,61.064,15.662,60z"/>
<path fill="#1E2223" d="M33.011,69.639c-3.188,0-5.783,2.595-5.783,5.783s2.595,5.783,5.783,5.783s5.783-2.595,5.783-5.783
	S36.199,69.639,33.011,69.639z M33.011,77.35c-1.065,0-1.928-0.864-1.928-1.928s0.863-1.928,1.928-1.928s1.928,0.864,1.928,1.928
	S34.076,77.35,33.011,77.35z"/>
<path fill="#1E2223" d="M84.784,99.409c5.209-7.675,7.987-16.587,7.987-25.915v-1.928H48.433V27.229h-1.927
	c-1.904,0-3.842,0.167-5.783,0.412V0.239H0.239v26.989h24.263l3.766,3.764C11.391,38.239,0.239,54.945,0.239,73.494
	c0,25.51,20.756,46.267,46.266,46.267c11.187,0,21.843-4.045,30.263-11.35l5.965,5.965c1.172,1.172,2.714,1.76,4.255,1.76
	c1.54,0,3.082-0.588,4.255-1.76c2.346-2.347,2.346-6.163,0-8.51L84.784,99.409z M26.099,23.372H4.094V4.095h32.771v30.046
	L26.099,23.372z M46.505,115.904c-23.385,0-42.411-19.024-42.411-42.41c0-17.525,10.866-33.247,27.137-39.537l9.491,9.491v-11.94
	c1.289-0.178,2.58-0.32,3.855-0.38v44.294h44.296c-0.338,7.604-2.698,14.858-6.858,21.217l-3.075-3.074
	c0.213-0.873,0.338-1.782,0.338-2.72c0-6.381-5.188-11.566-11.567-11.566c-6.379,0-11.566,5.186-11.566,11.566
	c0,6.378,5.187,11.566,11.566,11.566c0.939,0,1.848-0.126,2.721-0.338l3.605,3.605C66.352,112.263,56.668,115.904,46.505,115.904z
	 M75.422,90.845c0,4.253-3.459,7.71-7.712,7.71c-4.252,0-7.711-3.457-7.711-7.71s3.459-7.712,7.711-7.712
	C71.963,83.133,75.422,86.592,75.422,90.845z M88.517,111.649c-0.845,0.845-2.213,0.845-3.057,0l-11.246-11.246
	c1.199-0.819,2.236-1.856,3.057-3.057l11.246,11.246C89.359,109.438,89.359,110.806,88.517,111.649z"/>
<rect x="7.95" y="7.951" fill="#1E2223" width="25.061" height="3.855"/>
<rect x="7.95" y="15.662" fill="#1E2223" width="25.061" height="3.855"/>
<rect x="65.782" y="88.916" fill="#1E2223" width="3.856" height="3.855"/>
<rect x="48.433" y="88.916" fill="#1E2223" width="3.856" height="3.855"/>
<rect x="40.722" y="88.916" fill="#1E2223" width="3.855" height="3.855"/>
<rect x="33.011" y="88.916" fill="#1E2223" width="3.855" height="3.855"/>
</svg>
